<mxfile host="Electron" agent="Mozilla/5.0 (Windows NT 10.0; Win64; x64) AppleWebKit/537.36 (KHTML, like Gecko) draw.io/26.0.9 Chrome/128.0.6613.186 Electron/32.2.5 Safari/537.36" version="26.0.9" pages="7">
  <diagram id="rFm2FkIf6yNguIinC_j7" name="Legacy Class">
    <mxGraphModel dx="2952" dy="1193" grid="1" gridSize="10" guides="1" tooltips="1" connect="1" arrows="1" fold="1" page="1" pageScale="1" pageWidth="827" pageHeight="1169" math="0" shadow="0">
      <root>
        <mxCell id="0" />
        <mxCell id="1" parent="0" />
        <mxCell id="9RrEMFrNMlUTDb911mao-5" value="&lt;p style=&quot;margin:0px;margin-top:4px;text-align:center;&quot;&gt;&lt;b&gt;Pharmacy&lt;/b&gt;&lt;/p&gt;&lt;hr size=&quot;1&quot; style=&quot;border-style:solid;&quot;&gt;&lt;p style=&quot;margin:0px;margin-left:4px;&quot;&gt;+ drugs: Drug[]&lt;/p&gt;&lt;hr size=&quot;1&quot; style=&quot;border-style:solid;&quot;&gt;&lt;p style=&quot;margin:0px;margin-left:4px;&quot;&gt;+ updateBenefitValue(): Drug[]&lt;/p&gt;" style="verticalAlign=top;align=left;overflow=fill;html=1;whiteSpace=wrap;rounded=1;" parent="1" vertex="1">
          <mxGeometry x="320" y="520" width="180" height="90" as="geometry" />
        </mxCell>
        <mxCell id="9RrEMFrNMlUTDb911mao-23" style="edgeStyle=orthogonalEdgeStyle;rounded=0;orthogonalLoop=1;jettySize=auto;html=1;entryX=0;entryY=0.5;entryDx=0;entryDy=0;" parent="1" source="9RrEMFrNMlUTDb911mao-18" target="9RrEMFrNMlUTDb911mao-5" edge="1">
          <mxGeometry relative="1" as="geometry" />
        </mxCell>
        <mxCell id="9RrEMFrNMlUTDb911mao-18" value="Drug" style="swimlane;fontStyle=0;childLayout=stackLayout;horizontal=1;startSize=26;fillColor=none;horizontalStack=0;resizeParent=1;resizeParentMax=0;resizeLast=0;collapsible=1;marginBottom=0;whiteSpace=wrap;html=1;" parent="1" vertex="1">
          <mxGeometry x="110" y="513" width="140" height="104" as="geometry" />
        </mxCell>
        <mxCell id="9RrEMFrNMlUTDb911mao-19" value="+ name: string" style="text;strokeColor=none;fillColor=none;align=left;verticalAlign=top;spacingLeft=4;spacingRight=4;overflow=hidden;rotatable=0;points=[[0,0.5],[1,0.5]];portConstraint=eastwest;whiteSpace=wrap;html=1;" parent="9RrEMFrNMlUTDb911mao-18" vertex="1">
          <mxGeometry y="26" width="140" height="26" as="geometry" />
        </mxCell>
        <mxCell id="9RrEMFrNMlUTDb911mao-20" value="+ expiresIn: number" style="text;strokeColor=none;fillColor=none;align=left;verticalAlign=top;spacingLeft=4;spacingRight=4;overflow=hidden;rotatable=0;points=[[0,0.5],[1,0.5]];portConstraint=eastwest;whiteSpace=wrap;html=1;" parent="9RrEMFrNMlUTDb911mao-18" vertex="1">
          <mxGeometry y="52" width="140" height="26" as="geometry" />
        </mxCell>
        <mxCell id="9RrEMFrNMlUTDb911mao-21" value="+ benefit: number" style="text;strokeColor=none;fillColor=none;align=left;verticalAlign=top;spacingLeft=4;spacingRight=4;overflow=hidden;rotatable=0;points=[[0,0.5],[1,0.5]];portConstraint=eastwest;whiteSpace=wrap;html=1;" parent="9RrEMFrNMlUTDb911mao-18" vertex="1">
          <mxGeometry y="78" width="140" height="26" as="geometry" />
        </mxCell>
      </root>
    </mxGraphModel>
  </diagram>
  <diagram id="Is4G-9XJ7Ys9B4PQI1LF" name="Legacy Pharmacy Logic">
    <mxGraphModel dx="2811" dy="1136" grid="1" gridSize="10" guides="1" tooltips="1" connect="1" arrows="1" fold="1" page="1" pageScale="1" pageWidth="827" pageHeight="1169" math="0" shadow="0">
      <root>
        <mxCell id="0" />
        <mxCell id="1" parent="0" />
        <mxCell id="o_yKbrjvJQXXv3ZoMNaK-3" value="" style="edgeStyle=orthogonalEdgeStyle;rounded=0;orthogonalLoop=1;jettySize=auto;html=1;" parent="1" source="o_yKbrjvJQXXv3ZoMNaK-1" target="o_yKbrjvJQXXv3ZoMNaK-2" edge="1">
          <mxGeometry relative="1" as="geometry" />
        </mxCell>
        <mxCell id="o_yKbrjvJQXXv3ZoMNaK-1" value="UpdateBenefitValue()" style="ellipse;whiteSpace=wrap;html=1;" parent="1" vertex="1">
          <mxGeometry x="340" y="120" width="120" height="80" as="geometry" />
        </mxCell>
        <mxCell id="o_yKbrjvJQXXv3ZoMNaK-5" style="edgeStyle=orthogonalEdgeStyle;rounded=0;orthogonalLoop=1;jettySize=auto;html=1;entryX=0;entryY=0.5;entryDx=0;entryDy=0;" parent="1" source="o_yKbrjvJQXXv3ZoMNaK-2" target="o_yKbrjvJQXXv3ZoMNaK-4" edge="1">
          <mxGeometry relative="1" as="geometry" />
        </mxCell>
        <mxCell id="o_yKbrjvJQXXv3ZoMNaK-6" value="No" style="edgeLabel;html=1;align=center;verticalAlign=middle;resizable=0;points=[];" parent="o_yKbrjvJQXXv3ZoMNaK-5" vertex="1" connectable="0">
          <mxGeometry x="-0.5333" relative="1" as="geometry">
            <mxPoint as="offset" />
          </mxGeometry>
        </mxCell>
        <mxCell id="o_yKbrjvJQXXv3ZoMNaK-10" value="" style="edgeStyle=orthogonalEdgeStyle;rounded=0;orthogonalLoop=1;jettySize=auto;html=1;" parent="1" source="o_yKbrjvJQXXv3ZoMNaK-2" target="o_yKbrjvJQXXv3ZoMNaK-9" edge="1">
          <mxGeometry relative="1" as="geometry" />
        </mxCell>
        <mxCell id="o_yKbrjvJQXXv3ZoMNaK-11" value="Yes" style="edgeLabel;html=1;align=center;verticalAlign=middle;resizable=0;points=[];" parent="o_yKbrjvJQXXv3ZoMNaK-10" vertex="1" connectable="0">
          <mxGeometry x="-0.2" relative="1" as="geometry">
            <mxPoint as="offset" />
          </mxGeometry>
        </mxCell>
        <mxCell id="o_yKbrjvJQXXv3ZoMNaK-2" value="Drug.name&lt;div&gt;!=&lt;/div&gt;&lt;div&gt;Herbal Tea&lt;/div&gt;&lt;div&gt;&amp;amp;&amp;amp;&lt;/div&gt;&lt;div&gt;Drug.name&lt;/div&gt;&lt;div&gt;!=&lt;/div&gt;&lt;div&gt;Fervex&lt;/div&gt;" style="rhombus;whiteSpace=wrap;html=1;rounded=1;" parent="1" vertex="1">
          <mxGeometry x="270" y="280" width="260" height="270" as="geometry" />
        </mxCell>
        <mxCell id="x2pQnDLeImdDCOOKMeWI-4" value="" style="edgeStyle=none;curved=1;rounded=0;orthogonalLoop=1;jettySize=auto;html=1;fontSize=12;startSize=8;endSize=8;" edge="1" parent="1" source="o_yKbrjvJQXXv3ZoMNaK-4" target="x2pQnDLeImdDCOOKMeWI-3">
          <mxGeometry relative="1" as="geometry" />
        </mxCell>
        <mxCell id="x2pQnDLeImdDCOOKMeWI-5" value="Yes" style="edgeLabel;html=1;align=center;verticalAlign=middle;resizable=0;points=[];fontSize=12;" vertex="1" connectable="0" parent="x2pQnDLeImdDCOOKMeWI-4">
          <mxGeometry x="-0.6971" y="1" relative="1" as="geometry">
            <mxPoint as="offset" />
          </mxGeometry>
        </mxCell>
        <mxCell id="x2pQnDLeImdDCOOKMeWI-48" style="edgeStyle=orthogonalEdgeStyle;rounded=0;orthogonalLoop=1;jettySize=auto;html=1;entryX=0.5;entryY=0;entryDx=0;entryDy=0;" edge="1" parent="1" source="o_yKbrjvJQXXv3ZoMNaK-4" target="x2pQnDLeImdDCOOKMeWI-27">
          <mxGeometry relative="1" as="geometry">
            <Array as="points">
              <mxPoint x="880" y="600" />
              <mxPoint x="1140" y="600" />
            </Array>
          </mxGeometry>
        </mxCell>
        <mxCell id="x2pQnDLeImdDCOOKMeWI-49" value="No" style="edgeLabel;html=1;align=center;verticalAlign=middle;resizable=0;points=[];" vertex="1" connectable="0" parent="x2pQnDLeImdDCOOKMeWI-48">
          <mxGeometry x="-0.5238" y="4" relative="1" as="geometry">
            <mxPoint x="-1" as="offset" />
          </mxGeometry>
        </mxCell>
        <mxCell id="o_yKbrjvJQXXv3ZoMNaK-4" value="drug.benefit&amp;nbsp;&amp;nbsp;&lt;span style=&quot;font-family: Consolas, &amp;quot;Courier New&amp;quot;, monospace; font-size: 14px; white-space: pre; background-color: rgb(255, 255, 255);&quot;&gt;&lt;font style=&quot;color: rgb(0, 0, 0);&quot;&gt;&amp;lt; 50&lt;/font&gt;&lt;/span&gt;" style="rhombus;whiteSpace=wrap;html=1;rounded=1;" parent="1" vertex="1">
          <mxGeometry x="760" y="305" width="240" height="220" as="geometry" />
        </mxCell>
        <mxCell id="o_yKbrjvJQXXv3ZoMNaK-18" value="" style="edgeStyle=orthogonalEdgeStyle;rounded=0;orthogonalLoop=1;jettySize=auto;html=1;" parent="1" source="o_yKbrjvJQXXv3ZoMNaK-9" target="o_yKbrjvJQXXv3ZoMNaK-17" edge="1">
          <mxGeometry relative="1" as="geometry" />
        </mxCell>
        <mxCell id="o_yKbrjvJQXXv3ZoMNaK-19" value="Yes" style="edgeLabel;html=1;align=center;verticalAlign=middle;resizable=0;points=[];" parent="o_yKbrjvJQXXv3ZoMNaK-18" vertex="1" connectable="0">
          <mxGeometry x="-0.6325" relative="1" as="geometry">
            <mxPoint as="offset" />
          </mxGeometry>
        </mxCell>
        <mxCell id="x2pQnDLeImdDCOOKMeWI-57" style="edgeStyle=orthogonalEdgeStyle;rounded=0;orthogonalLoop=1;jettySize=auto;html=1;entryX=0.5;entryY=0;entryDx=0;entryDy=0;" edge="1" parent="1" source="o_yKbrjvJQXXv3ZoMNaK-9" target="x2pQnDLeImdDCOOKMeWI-27">
          <mxGeometry relative="1" as="geometry" />
        </mxCell>
        <mxCell id="x2pQnDLeImdDCOOKMeWI-61" value="No" style="edgeLabel;html=1;align=center;verticalAlign=middle;resizable=0;points=[];" vertex="1" connectable="0" parent="x2pQnDLeImdDCOOKMeWI-57">
          <mxGeometry x="-0.8977" relative="1" as="geometry">
            <mxPoint as="offset" />
          </mxGeometry>
        </mxCell>
        <mxCell id="o_yKbrjvJQXXv3ZoMNaK-9" value="Drug.benefit&amp;nbsp;&lt;div&gt;&amp;gt; 0&lt;br&gt;&lt;/div&gt;" style="rhombus;whiteSpace=wrap;html=1;rounded=1;" parent="1" vertex="1">
          <mxGeometry x="310" y="630" width="180" height="180" as="geometry" />
        </mxCell>
        <mxCell id="o_yKbrjvJQXXv3ZoMNaK-25" value="" style="edgeStyle=orthogonalEdgeStyle;rounded=0;orthogonalLoop=1;jettySize=auto;html=1;" parent="1" source="o_yKbrjvJQXXv3ZoMNaK-17" target="o_yKbrjvJQXXv3ZoMNaK-24" edge="1">
          <mxGeometry relative="1" as="geometry" />
        </mxCell>
        <mxCell id="x2pQnDLeImdDCOOKMeWI-1" value="Yes" style="edgeLabel;html=1;align=center;verticalAlign=middle;resizable=0;points=[];" vertex="1" connectable="0" parent="o_yKbrjvJQXXv3ZoMNaK-25">
          <mxGeometry x="-0.4524" y="2" relative="1" as="geometry">
            <mxPoint as="offset" />
          </mxGeometry>
        </mxCell>
        <mxCell id="x2pQnDLeImdDCOOKMeWI-58" style="edgeStyle=orthogonalEdgeStyle;rounded=0;orthogonalLoop=1;jettySize=auto;html=1;entryX=0.5;entryY=0;entryDx=0;entryDy=0;" edge="1" parent="1" source="o_yKbrjvJQXXv3ZoMNaK-17" target="x2pQnDLeImdDCOOKMeWI-27">
          <mxGeometry relative="1" as="geometry" />
        </mxCell>
        <mxCell id="x2pQnDLeImdDCOOKMeWI-60" value="No" style="edgeLabel;html=1;align=center;verticalAlign=middle;resizable=0;points=[];" vertex="1" connectable="0" parent="x2pQnDLeImdDCOOKMeWI-58">
          <mxGeometry x="-0.9508" y="-1" relative="1" as="geometry">
            <mxPoint as="offset" />
          </mxGeometry>
        </mxCell>
        <mxCell id="o_yKbrjvJQXXv3ZoMNaK-17" value="Drug.name&lt;div&gt;!=&lt;/div&gt;&lt;div&gt;Magic Pill&lt;/div&gt;" style="rhombus;whiteSpace=wrap;html=1;rounded=1;" parent="1" vertex="1">
          <mxGeometry x="310" y="890" width="180" height="180" as="geometry" />
        </mxCell>
        <mxCell id="x2pQnDLeImdDCOOKMeWI-59" style="edgeStyle=orthogonalEdgeStyle;rounded=0;orthogonalLoop=1;jettySize=auto;html=1;entryX=0.5;entryY=0;entryDx=0;entryDy=0;" edge="1" parent="1" source="o_yKbrjvJQXXv3ZoMNaK-24" target="x2pQnDLeImdDCOOKMeWI-27">
          <mxGeometry relative="1" as="geometry">
            <Array as="points">
              <mxPoint x="400" y="1290" />
              <mxPoint x="770" y="1290" />
              <mxPoint x="770" y="720" />
              <mxPoint x="1140" y="720" />
            </Array>
          </mxGeometry>
        </mxCell>
        <mxCell id="o_yKbrjvJQXXv3ZoMNaK-24" value="decrease benefit by 1" style="whiteSpace=wrap;html=1;rounded=1;" parent="1" vertex="1">
          <mxGeometry x="290" y="1169" width="220" height="60" as="geometry" />
        </mxCell>
        <mxCell id="x2pQnDLeImdDCOOKMeWI-7" value="" style="edgeStyle=none;curved=1;rounded=0;orthogonalLoop=1;jettySize=auto;html=1;fontSize=12;startSize=8;endSize=8;" edge="1" parent="1" source="x2pQnDLeImdDCOOKMeWI-3" target="x2pQnDLeImdDCOOKMeWI-6">
          <mxGeometry relative="1" as="geometry" />
        </mxCell>
        <mxCell id="x2pQnDLeImdDCOOKMeWI-3" value="Increase benefit by 1" style="whiteSpace=wrap;html=1;rounded=1;" vertex="1" parent="1">
          <mxGeometry x="1070" y="385" width="220" height="60" as="geometry" />
        </mxCell>
        <mxCell id="x2pQnDLeImdDCOOKMeWI-9" value="" style="edgeStyle=none;curved=1;rounded=0;orthogonalLoop=1;jettySize=auto;html=1;fontSize=12;startSize=8;endSize=8;" edge="1" parent="1" source="x2pQnDLeImdDCOOKMeWI-6" target="x2pQnDLeImdDCOOKMeWI-8">
          <mxGeometry relative="1" as="geometry" />
        </mxCell>
        <mxCell id="x2pQnDLeImdDCOOKMeWI-14" value="Yes" style="edgeLabel;html=1;align=center;verticalAlign=middle;resizable=0;points=[];fontSize=12;" vertex="1" connectable="0" parent="x2pQnDLeImdDCOOKMeWI-9">
          <mxGeometry x="-0.3333" y="-1" relative="1" as="geometry">
            <mxPoint as="offset" />
          </mxGeometry>
        </mxCell>
        <mxCell id="x2pQnDLeImdDCOOKMeWI-50" style="edgeStyle=orthogonalEdgeStyle;rounded=0;orthogonalLoop=1;jettySize=auto;html=1;" edge="1" parent="1" source="x2pQnDLeImdDCOOKMeWI-6" target="x2pQnDLeImdDCOOKMeWI-27">
          <mxGeometry relative="1" as="geometry">
            <Array as="points">
              <mxPoint x="1485" y="600" />
              <mxPoint x="1140" y="600" />
            </Array>
          </mxGeometry>
        </mxCell>
        <mxCell id="x2pQnDLeImdDCOOKMeWI-51" value="No" style="edgeLabel;html=1;align=center;verticalAlign=middle;resizable=0;points=[];" vertex="1" connectable="0" parent="x2pQnDLeImdDCOOKMeWI-50">
          <mxGeometry x="-0.4182" y="-3" relative="1" as="geometry">
            <mxPoint x="-1" as="offset" />
          </mxGeometry>
        </mxCell>
        <mxCell id="x2pQnDLeImdDCOOKMeWI-6" value="Drug name is Fervex" style="rhombus;whiteSpace=wrap;html=1;rounded=1;" vertex="1" parent="1">
          <mxGeometry x="1400" y="341.25" width="170" height="147.5" as="geometry" />
        </mxCell>
        <mxCell id="x2pQnDLeImdDCOOKMeWI-11" value="" style="edgeStyle=none;curved=1;rounded=0;orthogonalLoop=1;jettySize=auto;html=1;fontSize=12;startSize=8;endSize=8;" edge="1" parent="1" source="x2pQnDLeImdDCOOKMeWI-8" target="x2pQnDLeImdDCOOKMeWI-10">
          <mxGeometry relative="1" as="geometry" />
        </mxCell>
        <mxCell id="x2pQnDLeImdDCOOKMeWI-15" value="Yes" style="edgeLabel;html=1;align=center;verticalAlign=middle;resizable=0;points=[];fontSize=12;" vertex="1" connectable="0" parent="x2pQnDLeImdDCOOKMeWI-11">
          <mxGeometry x="-0.4583" y="2" relative="1" as="geometry">
            <mxPoint as="offset" />
          </mxGeometry>
        </mxCell>
        <mxCell id="x2pQnDLeImdDCOOKMeWI-18" value="" style="edgeStyle=none;curved=1;rounded=0;orthogonalLoop=1;jettySize=auto;html=1;fontSize=12;startSize=8;endSize=8;" edge="1" parent="1" source="x2pQnDLeImdDCOOKMeWI-8" target="x2pQnDLeImdDCOOKMeWI-17">
          <mxGeometry relative="1" as="geometry" />
        </mxCell>
        <mxCell id="x2pQnDLeImdDCOOKMeWI-26" value="No" style="edgeLabel;html=1;align=center;verticalAlign=middle;resizable=0;points=[];" vertex="1" connectable="0" parent="x2pQnDLeImdDCOOKMeWI-18">
          <mxGeometry x="-0.6292" y="3" relative="1" as="geometry">
            <mxPoint x="-1" as="offset" />
          </mxGeometry>
        </mxCell>
        <mxCell id="x2pQnDLeImdDCOOKMeWI-8" value="Drug expires&amp;nbsp;&lt;span style=&quot;font-family: Consolas, &amp;quot;Courier New&amp;quot;, monospace; font-size: 14px; white-space: pre; background-color: rgb(255, 255, 255);&quot;&gt;&lt;font style=&quot;color: rgb(0, 0, 0);&quot;&gt;&amp;lt; 11&lt;/font&gt;&lt;/span&gt;" style="rhombus;whiteSpace=wrap;html=1;rounded=1;" vertex="1" parent="1">
          <mxGeometry x="1690" y="341.25" width="170" height="147.5" as="geometry" />
        </mxCell>
        <mxCell id="x2pQnDLeImdDCOOKMeWI-13" value="" style="edgeStyle=none;curved=1;rounded=0;orthogonalLoop=1;jettySize=auto;html=1;fontSize=12;startSize=8;endSize=8;" edge="1" parent="1" source="x2pQnDLeImdDCOOKMeWI-10" target="x2pQnDLeImdDCOOKMeWI-12">
          <mxGeometry relative="1" as="geometry" />
        </mxCell>
        <mxCell id="x2pQnDLeImdDCOOKMeWI-16" value="Yes" style="edgeLabel;html=1;align=center;verticalAlign=middle;resizable=0;points=[];fontSize=12;" vertex="1" connectable="0" parent="x2pQnDLeImdDCOOKMeWI-13">
          <mxGeometry x="-0.3448" y="1" relative="1" as="geometry">
            <mxPoint as="offset" />
          </mxGeometry>
        </mxCell>
        <mxCell id="x2pQnDLeImdDCOOKMeWI-24" style="edgeStyle=orthogonalEdgeStyle;rounded=0;orthogonalLoop=1;jettySize=auto;html=1;fontSize=12;startSize=8;endSize=8;entryX=0.5;entryY=0;entryDx=0;entryDy=0;" edge="1" parent="1" source="x2pQnDLeImdDCOOKMeWI-10" target="x2pQnDLeImdDCOOKMeWI-17">
          <mxGeometry relative="1" as="geometry">
            <mxPoint x="2065" y="560" as="targetPoint" />
            <Array as="points">
              <mxPoint x="2065" y="550" />
              <mxPoint x="1775" y="550" />
            </Array>
          </mxGeometry>
        </mxCell>
        <mxCell id="x2pQnDLeImdDCOOKMeWI-25" value="No" style="edgeLabel;html=1;align=center;verticalAlign=middle;resizable=0;points=[];" vertex="1" connectable="0" parent="x2pQnDLeImdDCOOKMeWI-24">
          <mxGeometry x="-0.9098" y="1" relative="1" as="geometry">
            <mxPoint as="offset" />
          </mxGeometry>
        </mxCell>
        <mxCell id="x2pQnDLeImdDCOOKMeWI-10" value="Drug benefit&amp;nbsp;&lt;span style=&quot;font-family: Consolas, &amp;quot;Courier New&amp;quot;, monospace; font-size: 14px; white-space: pre; background-color: rgb(255, 255, 255);&quot;&gt;&lt;font style=&quot;color: rgb(0, 0, 0);&quot;&gt;&amp;lt; 50&lt;/font&gt;&lt;/span&gt;" style="rhombus;whiteSpace=wrap;html=1;rounded=1;" vertex="1" parent="1">
          <mxGeometry x="1980" y="341.25" width="170" height="147.5" as="geometry" />
        </mxCell>
        <mxCell id="x2pQnDLeImdDCOOKMeWI-38" style="edgeStyle=orthogonalEdgeStyle;rounded=0;orthogonalLoop=1;jettySize=auto;html=1;entryX=0.5;entryY=0;entryDx=0;entryDy=0;" edge="1" parent="1" source="x2pQnDLeImdDCOOKMeWI-12" target="x2pQnDLeImdDCOOKMeWI-17">
          <mxGeometry relative="1" as="geometry">
            <Array as="points">
              <mxPoint x="2520" y="415" />
              <mxPoint x="2520" y="550" />
              <mxPoint x="1775" y="550" />
            </Array>
          </mxGeometry>
        </mxCell>
        <mxCell id="x2pQnDLeImdDCOOKMeWI-12" value="increase drug benefit by 1" style="whiteSpace=wrap;html=1;rounded=1;" vertex="1" parent="1">
          <mxGeometry x="2295" y="385" width="195" height="60" as="geometry" />
        </mxCell>
        <mxCell id="x2pQnDLeImdDCOOKMeWI-20" value="" style="edgeStyle=none;curved=1;rounded=0;orthogonalLoop=1;jettySize=auto;html=1;fontSize=12;startSize=8;endSize=8;" edge="1" parent="1" source="x2pQnDLeImdDCOOKMeWI-17" target="x2pQnDLeImdDCOOKMeWI-19">
          <mxGeometry relative="1" as="geometry" />
        </mxCell>
        <mxCell id="x2pQnDLeImdDCOOKMeWI-37" value="Yes" style="edgeLabel;html=1;align=center;verticalAlign=middle;resizable=0;points=[];" vertex="1" connectable="0" parent="x2pQnDLeImdDCOOKMeWI-20">
          <mxGeometry x="-0.4167" y="4" relative="1" as="geometry">
            <mxPoint as="offset" />
          </mxGeometry>
        </mxCell>
        <mxCell id="x2pQnDLeImdDCOOKMeWI-52" style="edgeStyle=orthogonalEdgeStyle;rounded=0;orthogonalLoop=1;jettySize=auto;html=1;entryX=0.5;entryY=0;entryDx=0;entryDy=0;" edge="1" parent="1" source="x2pQnDLeImdDCOOKMeWI-17" target="x2pQnDLeImdDCOOKMeWI-27">
          <mxGeometry relative="1" as="geometry" />
        </mxCell>
        <mxCell id="x2pQnDLeImdDCOOKMeWI-53" value="No" style="edgeLabel;html=1;align=center;verticalAlign=middle;resizable=0;points=[];" vertex="1" connectable="0" parent="x2pQnDLeImdDCOOKMeWI-52">
          <mxGeometry x="-0.665" relative="1" as="geometry">
            <mxPoint as="offset" />
          </mxGeometry>
        </mxCell>
        <mxCell id="x2pQnDLeImdDCOOKMeWI-17" value="Drug expires&amp;nbsp;&lt;span style=&quot;font-family: Consolas, &amp;quot;Courier New&amp;quot;, monospace; font-size: 14px; white-space: pre; background-color: rgb(255, 255, 255);&quot;&gt;&lt;font style=&quot;color: rgb(0, 0, 0);&quot;&gt;&amp;lt; 6&lt;/font&gt;&lt;/span&gt;" style="rhombus;whiteSpace=wrap;html=1;rounded=1;" vertex="1" parent="1">
          <mxGeometry x="1690" y="608.75" width="170" height="147.5" as="geometry" />
        </mxCell>
        <mxCell id="x2pQnDLeImdDCOOKMeWI-23" value="" style="edgeStyle=orthogonalEdgeStyle;rounded=0;orthogonalLoop=1;jettySize=auto;html=1;fontSize=12;startSize=8;endSize=8;" edge="1" parent="1" source="x2pQnDLeImdDCOOKMeWI-19" target="x2pQnDLeImdDCOOKMeWI-22">
          <mxGeometry relative="1" as="geometry" />
        </mxCell>
        <mxCell id="x2pQnDLeImdDCOOKMeWI-41" value="Yes" style="edgeLabel;html=1;align=center;verticalAlign=middle;resizable=0;points=[];" vertex="1" connectable="0" parent="x2pQnDLeImdDCOOKMeWI-23">
          <mxGeometry x="0.1034" y="3" relative="1" as="geometry">
            <mxPoint as="offset" />
          </mxGeometry>
        </mxCell>
        <mxCell id="x2pQnDLeImdDCOOKMeWI-54" style="edgeStyle=orthogonalEdgeStyle;rounded=0;orthogonalLoop=1;jettySize=auto;html=1;entryX=0.5;entryY=0;entryDx=0;entryDy=0;" edge="1" parent="1" source="x2pQnDLeImdDCOOKMeWI-19" target="x2pQnDLeImdDCOOKMeWI-27">
          <mxGeometry relative="1" as="geometry">
            <Array as="points">
              <mxPoint x="2065" y="800" />
              <mxPoint x="1560" y="800" />
              <mxPoint x="1560" y="683" />
              <mxPoint x="1140" y="683" />
            </Array>
          </mxGeometry>
        </mxCell>
        <mxCell id="x2pQnDLeImdDCOOKMeWI-55" value="No" style="edgeLabel;html=1;align=center;verticalAlign=middle;resizable=0;points=[];" vertex="1" connectable="0" parent="x2pQnDLeImdDCOOKMeWI-54">
          <mxGeometry x="-0.755" y="1" relative="1" as="geometry">
            <mxPoint as="offset" />
          </mxGeometry>
        </mxCell>
        <mxCell id="x2pQnDLeImdDCOOKMeWI-19" value="Drug Benefit&amp;nbsp;&lt;span style=&quot;font-family: Consolas, &amp;quot;Courier New&amp;quot;, monospace; font-size: 14px; white-space: pre; background-color: rgb(255, 255, 255);&quot;&gt;&lt;font style=&quot;color: rgb(0, 0, 0);&quot;&gt;&amp;lt; 50&lt;/font&gt;&lt;/span&gt;" style="rhombus;whiteSpace=wrap;html=1;rounded=1;" vertex="1" parent="1">
          <mxGeometry x="1980" y="608.75" width="170" height="147.5" as="geometry" />
        </mxCell>
        <mxCell id="x2pQnDLeImdDCOOKMeWI-56" style="edgeStyle=orthogonalEdgeStyle;rounded=0;orthogonalLoop=1;jettySize=auto;html=1;entryX=0.5;entryY=0;entryDx=0;entryDy=0;" edge="1" parent="1" source="x2pQnDLeImdDCOOKMeWI-22" target="x2pQnDLeImdDCOOKMeWI-27">
          <mxGeometry relative="1" as="geometry">
            <Array as="points">
              <mxPoint x="2520" y="683" />
              <mxPoint x="2520" y="840" />
              <mxPoint x="1560" y="840" />
              <mxPoint x="1560" y="683" />
              <mxPoint x="1140" y="683" />
            </Array>
          </mxGeometry>
        </mxCell>
        <mxCell id="x2pQnDLeImdDCOOKMeWI-22" value="increase drug benefit by 1" style="whiteSpace=wrap;html=1;rounded=1;" vertex="1" parent="1">
          <mxGeometry x="2295" y="652.5" width="195" height="60" as="geometry" />
        </mxCell>
        <mxCell id="x2pQnDLeImdDCOOKMeWI-63" value="" style="edgeStyle=orthogonalEdgeStyle;rounded=0;orthogonalLoop=1;jettySize=auto;html=1;" edge="1" parent="1" source="x2pQnDLeImdDCOOKMeWI-27" target="x2pQnDLeImdDCOOKMeWI-62">
          <mxGeometry relative="1" as="geometry" />
        </mxCell>
        <mxCell id="x2pQnDLeImdDCOOKMeWI-27" value="&lt;div&gt;Drug name !=&lt;/div&gt;&lt;div&gt;Magic Pill&amp;nbsp;&lt;/div&gt;" style="rhombus;whiteSpace=wrap;html=1;rounded=1;" vertex="1" parent="1">
          <mxGeometry x="1050" y="740" width="180" height="180" as="geometry" />
        </mxCell>
        <mxCell id="x2pQnDLeImdDCOOKMeWI-65" value="" style="edgeStyle=orthogonalEdgeStyle;rounded=0;orthogonalLoop=1;jettySize=auto;html=1;" edge="1" parent="1" source="x2pQnDLeImdDCOOKMeWI-62" target="x2pQnDLeImdDCOOKMeWI-64">
          <mxGeometry relative="1" as="geometry" />
        </mxCell>
        <mxCell id="x2pQnDLeImdDCOOKMeWI-62" value="decrease expires In by 1" style="whiteSpace=wrap;html=1;rounded=1;" vertex="1" parent="1">
          <mxGeometry x="1000" y="1000" width="280" height="60" as="geometry" />
        </mxCell>
        <mxCell id="x2pQnDLeImdDCOOKMeWI-67" value="" style="edgeStyle=orthogonalEdgeStyle;rounded=0;orthogonalLoop=1;jettySize=auto;html=1;" edge="1" parent="1" source="x2pQnDLeImdDCOOKMeWI-64" target="x2pQnDLeImdDCOOKMeWI-66">
          <mxGeometry relative="1" as="geometry" />
        </mxCell>
        <mxCell id="x2pQnDLeImdDCOOKMeWI-68" value="No" style="edgeLabel;html=1;align=center;verticalAlign=middle;resizable=0;points=[];" vertex="1" connectable="0" parent="x2pQnDLeImdDCOOKMeWI-67">
          <mxGeometry x="-0.7818" y="1" relative="1" as="geometry">
            <mxPoint as="offset" />
          </mxGeometry>
        </mxCell>
        <mxCell id="x2pQnDLeImdDCOOKMeWI-70" value="" style="edgeStyle=orthogonalEdgeStyle;rounded=0;orthogonalLoop=1;jettySize=auto;html=1;" edge="1" parent="1" source="x2pQnDLeImdDCOOKMeWI-64" target="x2pQnDLeImdDCOOKMeWI-69">
          <mxGeometry relative="1" as="geometry" />
        </mxCell>
        <mxCell id="x2pQnDLeImdDCOOKMeWI-73" value="Yes" style="edgeLabel;html=1;align=center;verticalAlign=middle;resizable=0;points=[];" vertex="1" connectable="0" parent="x2pQnDLeImdDCOOKMeWI-70">
          <mxGeometry x="-0.45" y="1" relative="1" as="geometry">
            <mxPoint as="offset" />
          </mxGeometry>
        </mxCell>
        <mxCell id="x2pQnDLeImdDCOOKMeWI-64" value="drugs expiresIn&amp;nbsp;&lt;span style=&quot;background-color: rgb(255, 255, 255);&quot;&gt;&lt;font style=&quot;color: rgb(0, 0, 0);&quot;&gt;&lt;span style=&quot;font-family: Consolas, &amp;quot;Courier New&amp;quot;, monospace; font-size: 14px; white-space: pre;&quot;&gt;&amp;lt;&lt;/span&gt;&lt;font&gt;&lt;span style=&quot;font-family: Consolas, &amp;quot;Courier New&amp;quot;, monospace; font-size: 14px; white-space: pre;&quot;&gt; &lt;/span&gt;&lt;span style=&quot;font-family: Consolas, &amp;quot;Courier New&amp;quot;, monospace; font-size: 14px; white-space: pre;&quot;&gt;0&lt;/span&gt;&lt;/font&gt;&lt;/font&gt;&lt;/span&gt;&lt;span style=&quot;background-color: transparent; color: light-dark(rgb(0, 0, 0), rgb(255, 255, 255));&quot;&gt;&amp;nbsp;&lt;/span&gt;" style="rhombus;whiteSpace=wrap;html=1;rounded=1;" vertex="1" parent="1">
          <mxGeometry x="1047.5" y="1130" width="185" height="190" as="geometry" />
        </mxCell>
        <mxCell id="x2pQnDLeImdDCOOKMeWI-66" value="Continue&lt;div&gt;Loop&lt;/div&gt;" style="ellipse;whiteSpace=wrap;html=1;rounded=1;" vertex="1" parent="1">
          <mxGeometry x="1550" y="1185" width="80" height="80" as="geometry" />
        </mxCell>
        <mxCell id="x2pQnDLeImdDCOOKMeWI-72" value="" style="edgeStyle=orthogonalEdgeStyle;rounded=0;orthogonalLoop=1;jettySize=auto;html=1;" edge="1" parent="1" source="x2pQnDLeImdDCOOKMeWI-69" target="x2pQnDLeImdDCOOKMeWI-71">
          <mxGeometry relative="1" as="geometry" />
        </mxCell>
        <mxCell id="x2pQnDLeImdDCOOKMeWI-74" value="Yes" style="edgeLabel;html=1;align=center;verticalAlign=middle;resizable=0;points=[];" vertex="1" connectable="0" parent="x2pQnDLeImdDCOOKMeWI-72">
          <mxGeometry x="-0.425" y="1" relative="1" as="geometry">
            <mxPoint as="offset" />
          </mxGeometry>
        </mxCell>
        <mxCell id="x2pQnDLeImdDCOOKMeWI-76" value="" style="edgeStyle=orthogonalEdgeStyle;rounded=0;orthogonalLoop=1;jettySize=auto;html=1;" edge="1" parent="1" source="x2pQnDLeImdDCOOKMeWI-69" target="x2pQnDLeImdDCOOKMeWI-75">
          <mxGeometry relative="1" as="geometry" />
        </mxCell>
        <mxCell id="x2pQnDLeImdDCOOKMeWI-102" value="No" style="edgeLabel;html=1;align=center;verticalAlign=middle;resizable=0;points=[];" vertex="1" connectable="0" parent="x2pQnDLeImdDCOOKMeWI-76">
          <mxGeometry x="-0.591" y="2" relative="1" as="geometry">
            <mxPoint as="offset" />
          </mxGeometry>
        </mxCell>
        <mxCell id="x2pQnDLeImdDCOOKMeWI-69" value="drugs name&lt;div&gt;&lt;span style=&quot;background-color: transparent; color: light-dark(rgb(0, 0, 0), rgb(255, 255, 255));&quot;&gt;!=&lt;/span&gt;&lt;/div&gt;&lt;div&gt;&lt;span style=&quot;background-color: transparent; color: light-dark(rgb(0, 0, 0), rgb(255, 255, 255));&quot;&gt;&quot;Herbal Tea&quot;&amp;nbsp;&lt;/span&gt;&lt;/div&gt;" style="rhombus;whiteSpace=wrap;html=1;rounded=1;" vertex="1" parent="1">
          <mxGeometry x="1047.5" y="1400" width="185" height="190" as="geometry" />
        </mxCell>
        <mxCell id="x2pQnDLeImdDCOOKMeWI-83" value="" style="edgeStyle=orthogonalEdgeStyle;rounded=0;orthogonalLoop=1;jettySize=auto;html=1;" edge="1" parent="1" source="x2pQnDLeImdDCOOKMeWI-71" target="x2pQnDLeImdDCOOKMeWI-82">
          <mxGeometry relative="1" as="geometry" />
        </mxCell>
        <mxCell id="x2pQnDLeImdDCOOKMeWI-85" value="No" style="edgeLabel;html=1;align=center;verticalAlign=middle;resizable=0;points=[];" vertex="1" connectable="0" parent="x2pQnDLeImdDCOOKMeWI-83">
          <mxGeometry x="-0.3467" y="2" relative="1" as="geometry">
            <mxPoint x="1" as="offset" />
          </mxGeometry>
        </mxCell>
        <mxCell id="x2pQnDLeImdDCOOKMeWI-87" value="" style="edgeStyle=orthogonalEdgeStyle;rounded=0;orthogonalLoop=1;jettySize=auto;html=1;" edge="1" parent="1" source="x2pQnDLeImdDCOOKMeWI-71" target="x2pQnDLeImdDCOOKMeWI-86">
          <mxGeometry relative="1" as="geometry" />
        </mxCell>
        <mxCell id="x2pQnDLeImdDCOOKMeWI-88" value="Yes" style="edgeLabel;html=1;align=center;verticalAlign=middle;resizable=0;points=[];" vertex="1" connectable="0" parent="x2pQnDLeImdDCOOKMeWI-87">
          <mxGeometry x="-0.45" y="-2" relative="1" as="geometry">
            <mxPoint as="offset" />
          </mxGeometry>
        </mxCell>
        <mxCell id="x2pQnDLeImdDCOOKMeWI-71" value="drugs name&lt;div&gt;&lt;span style=&quot;background-color: transparent; color: light-dark(rgb(0, 0, 0), rgb(255, 255, 255));&quot;&gt;!=&lt;/span&gt;&lt;/div&gt;&lt;div&gt;&lt;span style=&quot;background-color: transparent; color: light-dark(rgb(0, 0, 0), rgb(255, 255, 255));&quot;&gt;&quot;Fervex&quot;&amp;nbsp;&lt;/span&gt;&lt;/div&gt;" style="rhombus;whiteSpace=wrap;html=1;rounded=1;" vertex="1" parent="1">
          <mxGeometry x="1047.5" y="1770" width="185" height="190" as="geometry" />
        </mxCell>
        <mxCell id="x2pQnDLeImdDCOOKMeWI-77" style="edgeStyle=orthogonalEdgeStyle;rounded=0;orthogonalLoop=1;jettySize=auto;html=1;entryX=0.5;entryY=1;entryDx=0;entryDy=0;" edge="1" parent="1" source="x2pQnDLeImdDCOOKMeWI-75" target="x2pQnDLeImdDCOOKMeWI-66">
          <mxGeometry relative="1" as="geometry" />
        </mxCell>
        <mxCell id="x2pQnDLeImdDCOOKMeWI-78" value="No" style="edgeLabel;html=1;align=center;verticalAlign=middle;resizable=0;points=[];" vertex="1" connectable="0" parent="x2pQnDLeImdDCOOKMeWI-77">
          <mxGeometry x="-0.5752" y="4" relative="1" as="geometry">
            <mxPoint x="-36" y="4" as="offset" />
          </mxGeometry>
        </mxCell>
        <mxCell id="x2pQnDLeImdDCOOKMeWI-80" value="" style="edgeStyle=orthogonalEdgeStyle;rounded=0;orthogonalLoop=1;jettySize=auto;html=1;" edge="1" parent="1" source="x2pQnDLeImdDCOOKMeWI-75" target="x2pQnDLeImdDCOOKMeWI-79">
          <mxGeometry relative="1" as="geometry" />
        </mxCell>
        <mxCell id="x2pQnDLeImdDCOOKMeWI-101" value="Yes" style="edgeLabel;html=1;align=center;verticalAlign=middle;resizable=0;points=[];" vertex="1" connectable="0" parent="x2pQnDLeImdDCOOKMeWI-80">
          <mxGeometry x="-0.5535" y="-1" relative="1" as="geometry">
            <mxPoint as="offset" />
          </mxGeometry>
        </mxCell>
        <mxCell id="x2pQnDLeImdDCOOKMeWI-75" value="drug.benefit&amp;nbsp;&amp;nbsp;&lt;span style=&quot;font-family: Consolas, &amp;quot;Courier New&amp;quot;, monospace; font-size: 14px; white-space: pre; background-color: rgb(255, 255, 255);&quot;&gt;&lt;font style=&quot;color: rgb(0, 0, 0);&quot;&gt;&amp;lt; 50&lt;/font&gt;&lt;/span&gt;" style="rhombus;whiteSpace=wrap;html=1;rounded=1;" vertex="1" parent="1">
          <mxGeometry x="1312.5" y="1400" width="185" height="190" as="geometry" />
        </mxCell>
        <mxCell id="x2pQnDLeImdDCOOKMeWI-81" style="edgeStyle=orthogonalEdgeStyle;rounded=0;orthogonalLoop=1;jettySize=auto;html=1;entryX=0.5;entryY=1;entryDx=0;entryDy=0;" edge="1" parent="1" source="x2pQnDLeImdDCOOKMeWI-79" target="x2pQnDLeImdDCOOKMeWI-66">
          <mxGeometry relative="1" as="geometry" />
        </mxCell>
        <mxCell id="x2pQnDLeImdDCOOKMeWI-79" value="increase drug benefit by 1" style="whiteSpace=wrap;html=1;rounded=1;" vertex="1" parent="1">
          <mxGeometry x="1307.5" y="1640" width="195" height="60" as="geometry" />
        </mxCell>
        <mxCell id="x2pQnDLeImdDCOOKMeWI-84" style="edgeStyle=orthogonalEdgeStyle;rounded=0;orthogonalLoop=1;jettySize=auto;html=1;entryX=0.5;entryY=1;entryDx=0;entryDy=0;" edge="1" parent="1" source="x2pQnDLeImdDCOOKMeWI-82" target="x2pQnDLeImdDCOOKMeWI-66">
          <mxGeometry relative="1" as="geometry" />
        </mxCell>
        <mxCell id="x2pQnDLeImdDCOOKMeWI-82" value="set drug benefit to same value" style="whiteSpace=wrap;html=1;rounded=1;" vertex="1" parent="1">
          <mxGeometry x="1307.5" y="1835" width="192.5" height="60" as="geometry" />
        </mxCell>
        <mxCell id="x2pQnDLeImdDCOOKMeWI-89" style="edgeStyle=orthogonalEdgeStyle;rounded=0;orthogonalLoop=1;jettySize=auto;html=1;entryX=0.5;entryY=1;entryDx=0;entryDy=0;" edge="1" parent="1" source="x2pQnDLeImdDCOOKMeWI-86" target="x2pQnDLeImdDCOOKMeWI-66">
          <mxGeometry relative="1" as="geometry" />
        </mxCell>
        <mxCell id="x2pQnDLeImdDCOOKMeWI-94" value="No" style="edgeLabel;html=1;align=center;verticalAlign=middle;resizable=0;points=[];" vertex="1" connectable="0" parent="x2pQnDLeImdDCOOKMeWI-89">
          <mxGeometry x="-0.9449" y="2" relative="1" as="geometry">
            <mxPoint as="offset" />
          </mxGeometry>
        </mxCell>
        <mxCell id="x2pQnDLeImdDCOOKMeWI-91" value="" style="edgeStyle=orthogonalEdgeStyle;rounded=0;orthogonalLoop=1;jettySize=auto;html=1;" edge="1" parent="1" source="x2pQnDLeImdDCOOKMeWI-86" target="x2pQnDLeImdDCOOKMeWI-90">
          <mxGeometry relative="1" as="geometry" />
        </mxCell>
        <mxCell id="x2pQnDLeImdDCOOKMeWI-92" value="Yes" style="edgeLabel;html=1;align=center;verticalAlign=middle;resizable=0;points=[];" vertex="1" connectable="0" parent="x2pQnDLeImdDCOOKMeWI-91">
          <mxGeometry x="-0.45" relative="1" as="geometry">
            <mxPoint as="offset" />
          </mxGeometry>
        </mxCell>
        <mxCell id="x2pQnDLeImdDCOOKMeWI-86" value="Drug.benefit&amp;nbsp;&lt;div&gt;&amp;gt; 0&lt;/div&gt;" style="rhombus;whiteSpace=wrap;html=1;rounded=1;" vertex="1" parent="1">
          <mxGeometry x="1047.5" y="2040" width="185" height="190" as="geometry" />
        </mxCell>
        <mxCell id="x2pQnDLeImdDCOOKMeWI-93" style="edgeStyle=orthogonalEdgeStyle;rounded=0;orthogonalLoop=1;jettySize=auto;html=1;entryX=0.5;entryY=1;entryDx=0;entryDy=0;" edge="1" parent="1" source="x2pQnDLeImdDCOOKMeWI-90" target="x2pQnDLeImdDCOOKMeWI-66">
          <mxGeometry relative="1" as="geometry" />
        </mxCell>
        <mxCell id="x2pQnDLeImdDCOOKMeWI-95" value="No" style="edgeLabel;html=1;align=center;verticalAlign=middle;resizable=0;points=[];" vertex="1" connectable="0" parent="x2pQnDLeImdDCOOKMeWI-93">
          <mxGeometry x="-0.9469" y="-1" relative="1" as="geometry">
            <mxPoint as="offset" />
          </mxGeometry>
        </mxCell>
        <mxCell id="x2pQnDLeImdDCOOKMeWI-97" value="" style="edgeStyle=orthogonalEdgeStyle;rounded=0;orthogonalLoop=1;jettySize=auto;html=1;" edge="1" parent="1" source="x2pQnDLeImdDCOOKMeWI-90" target="x2pQnDLeImdDCOOKMeWI-96">
          <mxGeometry relative="1" as="geometry" />
        </mxCell>
        <mxCell id="x2pQnDLeImdDCOOKMeWI-98" value="Yes" style="edgeLabel;html=1;align=center;verticalAlign=middle;resizable=0;points=[];" vertex="1" connectable="0" parent="x2pQnDLeImdDCOOKMeWI-97">
          <mxGeometry x="-0.6138" relative="1" as="geometry">
            <mxPoint as="offset" />
          </mxGeometry>
        </mxCell>
        <mxCell id="x2pQnDLeImdDCOOKMeWI-90" value="&lt;div&gt;Drug name !=&lt;/div&gt;&lt;div&gt;Magic Pill&amp;nbsp;&lt;/div&gt;" style="rhombus;whiteSpace=wrap;html=1;rounded=1;" vertex="1" parent="1">
          <mxGeometry x="1047.5" y="2310" width="185" height="190" as="geometry" />
        </mxCell>
        <mxCell id="x2pQnDLeImdDCOOKMeWI-99" style="edgeStyle=orthogonalEdgeStyle;rounded=0;orthogonalLoop=1;jettySize=auto;html=1;entryX=0.5;entryY=1;entryDx=0;entryDy=0;" edge="1" parent="1" source="x2pQnDLeImdDCOOKMeWI-96" target="x2pQnDLeImdDCOOKMeWI-66">
          <mxGeometry relative="1" as="geometry" />
        </mxCell>
        <mxCell id="x2pQnDLeImdDCOOKMeWI-96" value="decrease benefit by 1" style="whiteSpace=wrap;html=1;rounded=1;" vertex="1" parent="1">
          <mxGeometry x="1050" y="2645" width="180" height="60" as="geometry" />
        </mxCell>
      </root>
    </mxGraphModel>
  </diagram>
  <diagram id="8ZdPQbJ0myypRQ0T9Hf2" name="Class and Interface">
    <mxGraphModel dx="2952" dy="1193" grid="1" gridSize="10" guides="1" tooltips="1" connect="1" arrows="1" fold="1" page="1" pageScale="1" pageWidth="827" pageHeight="1169" math="0" shadow="0">
      <root>
        <mxCell id="0" />
        <mxCell id="1" parent="0" />
        <mxCell id="3tT0mNQFUErjeIWnJe0B-2" style="edgeStyle=orthogonalEdgeStyle;rounded=0;orthogonalLoop=1;jettySize=auto;html=1;" edge="1" parent="1" source="QxfMIecmLvNIXj1N8QbP-1" target="3tT0mNQFUErjeIWnJe0B-1">
          <mxGeometry relative="1" as="geometry" />
        </mxCell>
        <mxCell id="3tT0mNQFUErjeIWnJe0B-6" style="edgeStyle=orthogonalEdgeStyle;rounded=0;orthogonalLoop=1;jettySize=auto;html=1;" edge="1" parent="1" source="QxfMIecmLvNIXj1N8QbP-1" target="3tT0mNQFUErjeIWnJe0B-5">
          <mxGeometry relative="1" as="geometry" />
        </mxCell>
        <mxCell id="3tT0mNQFUErjeIWnJe0B-8" style="edgeStyle=orthogonalEdgeStyle;rounded=0;orthogonalLoop=1;jettySize=auto;html=1;" edge="1" parent="1" source="QxfMIecmLvNIXj1N8QbP-1" target="3tT0mNQFUErjeIWnJe0B-7">
          <mxGeometry relative="1" as="geometry" />
        </mxCell>
        <mxCell id="3tT0mNQFUErjeIWnJe0B-11" style="edgeStyle=orthogonalEdgeStyle;rounded=0;orthogonalLoop=1;jettySize=auto;html=1;entryX=0.5;entryY=1;entryDx=0;entryDy=0;" edge="1" parent="1" source="QxfMIecmLvNIXj1N8QbP-1" target="3tT0mNQFUErjeIWnJe0B-9">
          <mxGeometry relative="1" as="geometry" />
        </mxCell>
        <mxCell id="3tT0mNQFUErjeIWnJe0B-12" style="edgeStyle=orthogonalEdgeStyle;rounded=0;orthogonalLoop=1;jettySize=auto;html=1;entryX=0.5;entryY=1;entryDx=0;entryDy=0;" edge="1" parent="1" source="QxfMIecmLvNIXj1N8QbP-1" target="3tT0mNQFUErjeIWnJe0B-10">
          <mxGeometry relative="1" as="geometry" />
        </mxCell>
        <mxCell id="QxfMIecmLvNIXj1N8QbP-1" value="IDrug" style="swimlane;fontStyle=1;align=center;verticalAlign=top;childLayout=stackLayout;horizontal=1;startSize=26;horizontalStack=0;resizeParent=1;resizeParentMax=0;resizeLast=0;collapsible=1;marginBottom=0;whiteSpace=wrap;html=1;" vertex="1" parent="1">
          <mxGeometry x="240" y="560" width="200" height="138" as="geometry" />
        </mxCell>
        <mxCell id="QxfMIecmLvNIXj1N8QbP-2" value="+ name: string" style="text;strokeColor=none;fillColor=none;align=left;verticalAlign=top;spacingLeft=4;spacingRight=4;overflow=hidden;rotatable=0;points=[[0,0.5],[1,0.5]];portConstraint=eastwest;whiteSpace=wrap;html=1;" vertex="1" parent="QxfMIecmLvNIXj1N8QbP-1">
          <mxGeometry y="26" width="200" height="26" as="geometry" />
        </mxCell>
        <mxCell id="QxfMIecmLvNIXj1N8QbP-5" value="+ benefit: number" style="text;strokeColor=none;fillColor=none;align=left;verticalAlign=top;spacingLeft=4;spacingRight=4;overflow=hidden;rotatable=0;points=[[0,0.5],[1,0.5]];portConstraint=eastwest;whiteSpace=wrap;html=1;" vertex="1" parent="QxfMIecmLvNIXj1N8QbP-1">
          <mxGeometry y="52" width="200" height="26" as="geometry" />
        </mxCell>
        <mxCell id="QxfMIecmLvNIXj1N8QbP-6" value="+ expiresIn: number" style="text;strokeColor=none;fillColor=none;align=left;verticalAlign=top;spacingLeft=4;spacingRight=4;overflow=hidden;rotatable=0;points=[[0,0.5],[1,0.5]];portConstraint=eastwest;whiteSpace=wrap;html=1;" vertex="1" parent="QxfMIecmLvNIXj1N8QbP-1">
          <mxGeometry y="78" width="200" height="26" as="geometry" />
        </mxCell>
        <mxCell id="QxfMIecmLvNIXj1N8QbP-3" value="" style="line;strokeWidth=1;fillColor=none;align=left;verticalAlign=middle;spacingTop=-1;spacingLeft=3;spacingRight=3;rotatable=0;labelPosition=right;points=[];portConstraint=eastwest;strokeColor=inherit;" vertex="1" parent="QxfMIecmLvNIXj1N8QbP-1">
          <mxGeometry y="104" width="200" height="8" as="geometry" />
        </mxCell>
        <mxCell id="QxfMIecmLvNIXj1N8QbP-4" value="+ updateBenefitValue(type): void" style="text;strokeColor=none;fillColor=none;align=left;verticalAlign=top;spacingLeft=4;spacingRight=4;overflow=hidden;rotatable=0;points=[[0,0.5],[1,0.5]];portConstraint=eastwest;whiteSpace=wrap;html=1;" vertex="1" parent="QxfMIecmLvNIXj1N8QbP-1">
          <mxGeometry y="112" width="200" height="26" as="geometry" />
        </mxCell>
        <mxCell id="3tT0mNQFUErjeIWnJe0B-14" style="edgeStyle=orthogonalEdgeStyle;rounded=0;orthogonalLoop=1;jettySize=auto;html=1;" edge="1" parent="1" source="VI3WgbZhFadwkGcsORpv-15" target="3tT0mNQFUErjeIWnJe0B-13">
          <mxGeometry relative="1" as="geometry" />
        </mxCell>
        <mxCell id="VI3WgbZhFadwkGcsORpv-15" value="IPharmacy" style="swimlane;fontStyle=1;align=center;verticalAlign=top;childLayout=stackLayout;horizontal=1;startSize=26;horizontalStack=0;resizeParent=1;resizeParentMax=0;resizeLast=0;collapsible=1;marginBottom=0;whiteSpace=wrap;html=1;" vertex="1" parent="1">
          <mxGeometry x="640" y="560" width="260" height="86" as="geometry" />
        </mxCell>
        <mxCell id="VI3WgbZhFadwkGcsORpv-16" value="+ drugs: IDrug[]" style="text;strokeColor=none;fillColor=none;align=left;verticalAlign=top;spacingLeft=4;spacingRight=4;overflow=hidden;rotatable=0;points=[[0,0.5],[1,0.5]];portConstraint=eastwest;whiteSpace=wrap;html=1;" vertex="1" parent="VI3WgbZhFadwkGcsORpv-15">
          <mxGeometry y="26" width="260" height="26" as="geometry" />
        </mxCell>
        <mxCell id="VI3WgbZhFadwkGcsORpv-19" value="" style="line;strokeWidth=1;fillColor=none;align=left;verticalAlign=middle;spacingTop=-1;spacingLeft=3;spacingRight=3;rotatable=0;labelPosition=right;points=[];portConstraint=eastwest;strokeColor=inherit;" vertex="1" parent="VI3WgbZhFadwkGcsORpv-15">
          <mxGeometry y="52" width="260" height="8" as="geometry" />
        </mxCell>
        <mxCell id="VI3WgbZhFadwkGcsORpv-20" value="+ updateBenefitValue(type): IDrug[]" style="text;strokeColor=none;fillColor=none;align=left;verticalAlign=top;spacingLeft=4;spacingRight=4;overflow=hidden;rotatable=0;points=[[0,0.5],[1,0.5]];portConstraint=eastwest;whiteSpace=wrap;html=1;" vertex="1" parent="VI3WgbZhFadwkGcsORpv-15">
          <mxGeometry y="60" width="260" height="26" as="geometry" />
        </mxCell>
        <mxCell id="3tT0mNQFUErjeIWnJe0B-1" value="NormalDrug" style="html=1;whiteSpace=wrap;" vertex="1" parent="1">
          <mxGeometry x="140" y="790" width="110" height="50" as="geometry" />
        </mxCell>
        <mxCell id="3tT0mNQFUErjeIWnJe0B-5" value="HerbalTea" style="html=1;whiteSpace=wrap;" vertex="1" parent="1">
          <mxGeometry x="285" y="790" width="110" height="50" as="geometry" />
        </mxCell>
        <mxCell id="3tT0mNQFUErjeIWnJe0B-7" value="Fervex" style="html=1;whiteSpace=wrap;" vertex="1" parent="1">
          <mxGeometry x="430" y="790" width="110" height="50" as="geometry" />
        </mxCell>
        <mxCell id="3tT0mNQFUErjeIWnJe0B-9" value="MagicPill" style="html=1;whiteSpace=wrap;" vertex="1" parent="1">
          <mxGeometry x="170" y="400" width="110" height="50" as="geometry" />
        </mxCell>
        <mxCell id="3tT0mNQFUErjeIWnJe0B-10" value="Dafalgan" style="html=1;whiteSpace=wrap;" vertex="1" parent="1">
          <mxGeometry x="395" y="400" width="110" height="50" as="geometry" />
        </mxCell>
        <mxCell id="3tT0mNQFUErjeIWnJe0B-13" value="Pharmacy" style="html=1;whiteSpace=wrap;" vertex="1" parent="1">
          <mxGeometry x="715" y="720" width="110" height="50" as="geometry" />
        </mxCell>
      </root>
    </mxGraphModel>
  </diagram>
  <diagram id="ChQ6EwMX-FrEiv7JUwKi" name="HerbalTea">
    <mxGraphModel dx="3758" dy="1407" grid="1" gridSize="10" guides="1" tooltips="1" connect="1" arrows="1" fold="1" page="1" pageScale="1" pageWidth="827" pageHeight="1169" math="0" shadow="0">
      <root>
        <mxCell id="0" />
        <mxCell id="1" parent="0" />
        <mxCell id="EL-KEEy-OK0W3noFkGad-33" style="edgeStyle=orthogonalEdgeStyle;rounded=0;orthogonalLoop=1;jettySize=auto;html=1;" parent="1" source="cLQfBe7StKsZaoTEb_NI-1" target="EL-KEEy-OK0W3noFkGad-32" edge="1">
          <mxGeometry relative="1" as="geometry" />
        </mxCell>
        <mxCell id="cLQfBe7StKsZaoTEb_NI-1" value="Start Process" style="ellipse;whiteSpace=wrap;html=1;" parent="1" vertex="1">
          <mxGeometry x="354" y="10" width="120" height="80" as="geometry" />
        </mxCell>
        <mxCell id="EL-KEEy-OK0W3noFkGad-11" value="" style="edgeStyle=orthogonalEdgeStyle;rounded=0;orthogonalLoop=1;jettySize=auto;html=1;exitX=0.5;exitY=1;exitDx=0;exitDy=0;" parent="1" source="EL-KEEy-OK0W3noFkGad-34" target="EL-KEEy-OK0W3noFkGad-10" edge="1">
          <mxGeometry relative="1" as="geometry">
            <mxPoint x="414" y="460" as="sourcePoint" />
          </mxGeometry>
        </mxCell>
        <mxCell id="EL-KEEy-OK0W3noFkGad-13" value="" style="edgeStyle=orthogonalEdgeStyle;rounded=0;orthogonalLoop=1;jettySize=auto;html=1;" parent="1" source="EL-KEEy-OK0W3noFkGad-10" target="EL-KEEy-OK0W3noFkGad-12" edge="1">
          <mxGeometry relative="1" as="geometry" />
        </mxCell>
        <mxCell id="EL-KEEy-OK0W3noFkGad-10" value="decrease expires In by 1" style="whiteSpace=wrap;html=1;rounded=1;" parent="1" vertex="1">
          <mxGeometry x="336" y="540" width="156" height="60" as="geometry" />
        </mxCell>
        <mxCell id="EL-KEEy-OK0W3noFkGad-17" value="" style="edgeStyle=orthogonalEdgeStyle;rounded=0;orthogonalLoop=1;jettySize=auto;html=1;entryX=0.5;entryY=0;entryDx=0;entryDy=0;" parent="1" source="EL-KEEy-OK0W3noFkGad-12" target="EL-KEEy-OK0W3noFkGad-18" edge="1">
          <mxGeometry relative="1" as="geometry">
            <mxPoint x="414" y="890" as="targetPoint" />
          </mxGeometry>
        </mxCell>
        <mxCell id="EL-KEEy-OK0W3noFkGad-20" value="Yes" style="edgeLabel;html=1;align=center;verticalAlign=middle;resizable=0;points=[];" parent="EL-KEEy-OK0W3noFkGad-17" vertex="1" connectable="0">
          <mxGeometry x="-0.225" y="1" relative="1" as="geometry">
            <mxPoint as="offset" />
          </mxGeometry>
        </mxCell>
        <mxCell id="EL-KEEy-OK0W3noFkGad-28" style="edgeStyle=orthogonalEdgeStyle;rounded=0;orthogonalLoop=1;jettySize=auto;html=1;entryX=1;entryY=0.5;entryDx=0;entryDy=0;" parent="1" source="EL-KEEy-OK0W3noFkGad-12" target="EL-KEEy-OK0W3noFkGad-24" edge="1">
          <mxGeometry relative="1" as="geometry">
            <Array as="points">
              <mxPoint x="560" y="745" />
              <mxPoint x="560" y="1120" />
            </Array>
          </mxGeometry>
        </mxCell>
        <mxCell id="EL-KEEy-OK0W3noFkGad-29" value="No" style="edgeLabel;html=1;align=center;verticalAlign=middle;resizable=0;points=[];" parent="EL-KEEy-OK0W3noFkGad-28" vertex="1" connectable="0">
          <mxGeometry x="-0.9346" relative="1" as="geometry">
            <mxPoint as="offset" />
          </mxGeometry>
        </mxCell>
        <mxCell id="EL-KEEy-OK0W3noFkGad-12" value="expiresIn&amp;nbsp;&lt;span style=&quot;background-color: rgb(255, 255, 255);&quot;&gt;&lt;font style=&quot;color: rgb(0, 0, 0);&quot;&gt;&lt;span style=&quot;font-family: Consolas, &amp;quot;Courier New&amp;quot;, monospace; font-size: 14px; white-space: pre;&quot;&gt;&amp;lt;&lt;/span&gt;&lt;span style=&quot;font-family: Consolas, &amp;quot;Courier New&amp;quot;, monospace; font-size: 14px; white-space: pre;&quot;&gt; &lt;/span&gt;&lt;span style=&quot;font-family: Consolas, &amp;quot;Courier New&amp;quot;, monospace; font-size: 14px; white-space: pre;&quot;&gt;0&lt;/span&gt;&lt;/font&gt;&lt;/span&gt;&lt;div&gt;&lt;span style=&quot;background-color: rgb(255, 255, 255);&quot;&gt;&lt;font style=&quot;color: rgb(0, 0, 0);&quot;&gt;&lt;span style=&quot;font-family: Consolas, &amp;quot;Courier New&amp;quot;, monospace; font-size: 14px; white-space: pre;&quot;&gt;&amp;amp;&amp;amp; &lt;/span&gt;&lt;/font&gt;&lt;/span&gt;&lt;span style=&quot;background-color: transparent; color: light-dark(rgb(0, 0, 0), rgb(255, 255, 255));&quot;&gt;benefit&amp;nbsp;&lt;/span&gt;&lt;span style=&quot;color: light-dark(rgb(0, 0, 0), rgb(255, 255, 255)); background-color: rgb(255, 255, 255);&quot;&gt;&lt;font style=&quot;color: rgb(0, 0, 0);&quot;&gt;&lt;span style=&quot;font-family: Consolas, &amp;quot;Courier New&amp;quot;, monospace; font-size: 14px; white-space: pre;&quot;&gt;&amp;lt;&lt;/span&gt;&lt;span style=&quot;font-family: Consolas, &amp;quot;Courier New&amp;quot;, monospace; font-size: 14px; white-space: pre;&quot;&gt; 5&lt;/span&gt;&lt;span style=&quot;font-family: Consolas, &amp;quot;Courier New&amp;quot;, monospace; font-size: 14px; white-space: pre;&quot;&gt;0&lt;/span&gt;&lt;/font&gt;&lt;/span&gt;&lt;/div&gt;" style="rhombus;whiteSpace=wrap;html=1;rounded=1;" parent="1" vertex="1">
          <mxGeometry x="351" y="680" width="126" height="130" as="geometry" />
        </mxCell>
        <mxCell id="EL-KEEy-OK0W3noFkGad-25" value="" style="edgeStyle=orthogonalEdgeStyle;rounded=0;orthogonalLoop=1;jettySize=auto;html=1;" parent="1" source="EL-KEEy-OK0W3noFkGad-18" target="EL-KEEy-OK0W3noFkGad-24" edge="1">
          <mxGeometry relative="1" as="geometry" />
        </mxCell>
        <mxCell id="EL-KEEy-OK0W3noFkGad-18" value="increase benefit by 1" style="whiteSpace=wrap;html=1;rounded=1;" parent="1" vertex="1">
          <mxGeometry x="331" y="940" width="166" height="60" as="geometry" />
        </mxCell>
        <mxCell id="EL-KEEy-OK0W3noFkGad-24" value="End&lt;div&gt;Process&lt;/div&gt;" style="ellipse;whiteSpace=wrap;html=1;rounded=1;" parent="1" vertex="1">
          <mxGeometry x="374" y="1080" width="80" height="80" as="geometry" />
        </mxCell>
        <mxCell id="EL-KEEy-OK0W3noFkGad-35" value="" style="edgeStyle=orthogonalEdgeStyle;rounded=0;orthogonalLoop=1;jettySize=auto;html=1;" parent="1" source="EL-KEEy-OK0W3noFkGad-32" target="EL-KEEy-OK0W3noFkGad-34" edge="1">
          <mxGeometry relative="1" as="geometry" />
        </mxCell>
        <mxCell id="EL-KEEy-OK0W3noFkGad-36" value="Yes" style="edgeLabel;html=1;align=center;verticalAlign=middle;resizable=0;points=[];" parent="EL-KEEy-OK0W3noFkGad-35" vertex="1" connectable="0">
          <mxGeometry x="-0.3913" y="-3" relative="1" as="geometry">
            <mxPoint as="offset" />
          </mxGeometry>
        </mxCell>
        <mxCell id="EL-KEEy-OK0W3noFkGad-37" style="edgeStyle=orthogonalEdgeStyle;rounded=0;orthogonalLoop=1;jettySize=auto;html=1;" parent="1" source="EL-KEEy-OK0W3noFkGad-32" target="EL-KEEy-OK0W3noFkGad-10" edge="1">
          <mxGeometry relative="1" as="geometry">
            <Array as="points">
              <mxPoint x="560" y="195" />
              <mxPoint x="560" y="570" />
            </Array>
          </mxGeometry>
        </mxCell>
        <mxCell id="EL-KEEy-OK0W3noFkGad-38" value="No" style="edgeLabel;html=1;align=center;verticalAlign=middle;resizable=0;points=[];" parent="EL-KEEy-OK0W3noFkGad-37" vertex="1" connectable="0">
          <mxGeometry x="-0.9654" y="2" relative="1" as="geometry">
            <mxPoint as="offset" />
          </mxGeometry>
        </mxCell>
        <mxCell id="EL-KEEy-OK0W3noFkGad-32" value="benefit&amp;nbsp;&lt;span style=&quot;background-color: rgb(255, 255, 255);&quot;&gt;&lt;font style=&quot;color: rgb(0, 0, 0);&quot;&gt;&lt;span style=&quot;font-family: Consolas, &amp;quot;Courier New&amp;quot;, monospace; font-size: 14px; white-space: pre;&quot;&gt;&amp;lt;&lt;/span&gt;&lt;span style=&quot;font-family: Consolas, &amp;quot;Courier New&amp;quot;, monospace; font-size: 14px; white-space: pre;&quot;&gt; 5&lt;/span&gt;&lt;span style=&quot;font-family: Consolas, &amp;quot;Courier New&amp;quot;, monospace; font-size: 14px; white-space: pre;&quot;&gt;0&lt;/span&gt;&lt;/font&gt;&lt;/span&gt;" style="rhombus;whiteSpace=wrap;html=1;rounded=1;" parent="1" vertex="1">
          <mxGeometry x="351" y="130" width="126" height="130" as="geometry" />
        </mxCell>
        <mxCell id="EL-KEEy-OK0W3noFkGad-34" value="Increase benefit by 1" style="whiteSpace=wrap;html=1;rounded=1;" parent="1" vertex="1">
          <mxGeometry x="329" y="375" width="170" height="60" as="geometry" />
        </mxCell>
      </root>
    </mxGraphModel>
  </diagram>
  <diagram name="Fervex" id="dL85L6UbM3HfviabcHjy">
    <mxGraphModel dx="5807" dy="2175" grid="1" gridSize="10" guides="1" tooltips="1" connect="1" arrows="1" fold="1" page="1" pageScale="1" pageWidth="827" pageHeight="1169" math="0" shadow="0">
      <root>
        <mxCell id="WqlfgYkJmwx2m8KZQHiU-0" />
        <mxCell id="WqlfgYkJmwx2m8KZQHiU-1" parent="WqlfgYkJmwx2m8KZQHiU-0" />
        <mxCell id="R6OkOapHbmyc_MT4Wv6Z-14" style="edgeStyle=orthogonalEdgeStyle;rounded=0;orthogonalLoop=1;jettySize=auto;html=1;entryX=0.5;entryY=0;entryDx=0;entryDy=0;" parent="WqlfgYkJmwx2m8KZQHiU-1" source="WqlfgYkJmwx2m8KZQHiU-3" target="R6OkOapHbmyc_MT4Wv6Z-13" edge="1">
          <mxGeometry relative="1" as="geometry" />
        </mxCell>
        <mxCell id="WqlfgYkJmwx2m8KZQHiU-3" value="Start Process" style="ellipse;whiteSpace=wrap;html=1;" parent="WqlfgYkJmwx2m8KZQHiU-1" vertex="1">
          <mxGeometry x="23" width="120" height="80" as="geometry" />
        </mxCell>
        <mxCell id="R6OkOapHbmyc_MT4Wv6Z-19" style="edgeStyle=orthogonalEdgeStyle;rounded=0;orthogonalLoop=1;jettySize=auto;html=1;" parent="WqlfgYkJmwx2m8KZQHiU-1" source="WqlfgYkJmwx2m8KZQHiU-6" target="WqlfgYkJmwx2m8KZQHiU-19" edge="1">
          <mxGeometry relative="1" as="geometry" />
        </mxCell>
        <mxCell id="WqlfgYkJmwx2m8KZQHiU-6" value="decrease expires In by 1" style="whiteSpace=wrap;html=1;rounded=1;" parent="WqlfgYkJmwx2m8KZQHiU-1" vertex="1">
          <mxGeometry x="336" y="1470" width="156" height="60" as="geometry" />
        </mxCell>
        <mxCell id="WqlfgYkJmwx2m8KZQHiU-19" value="End&lt;div&gt;Process&lt;/div&gt;" style="ellipse;whiteSpace=wrap;html=1;rounded=1;" parent="WqlfgYkJmwx2m8KZQHiU-1" vertex="1">
          <mxGeometry x="374" y="1620" width="80" height="80" as="geometry" />
        </mxCell>
        <mxCell id="WqlfgYkJmwx2m8KZQHiU-20" value="" style="edgeStyle=orthogonalEdgeStyle;rounded=0;orthogonalLoop=1;jettySize=auto;html=1;" parent="WqlfgYkJmwx2m8KZQHiU-1" source="WqlfgYkJmwx2m8KZQHiU-24" target="WqlfgYkJmwx2m8KZQHiU-25" edge="1">
          <mxGeometry relative="1" as="geometry" />
        </mxCell>
        <mxCell id="WqlfgYkJmwx2m8KZQHiU-21" value="Yes" style="edgeLabel;html=1;align=center;verticalAlign=middle;resizable=0;points=[];" parent="WqlfgYkJmwx2m8KZQHiU-20" vertex="1" connectable="0">
          <mxGeometry x="-0.3913" y="-3" relative="1" as="geometry">
            <mxPoint as="offset" />
          </mxGeometry>
        </mxCell>
        <mxCell id="WqlfgYkJmwx2m8KZQHiU-22" style="edgeStyle=orthogonalEdgeStyle;rounded=0;orthogonalLoop=1;jettySize=auto;html=1;entryX=1;entryY=0.5;entryDx=0;entryDy=0;" parent="WqlfgYkJmwx2m8KZQHiU-1" source="WqlfgYkJmwx2m8KZQHiU-24" target="WqlfgYkJmwx2m8KZQHiU-6" edge="1">
          <mxGeometry relative="1" as="geometry">
            <Array as="points">
              <mxPoint x="740" y="195" />
              <mxPoint x="740" y="1500" />
            </Array>
          </mxGeometry>
        </mxCell>
        <mxCell id="WqlfgYkJmwx2m8KZQHiU-23" value="No" style="edgeLabel;html=1;align=center;verticalAlign=middle;resizable=0;points=[];" parent="WqlfgYkJmwx2m8KZQHiU-22" vertex="1" connectable="0">
          <mxGeometry x="-0.9654" y="2" relative="1" as="geometry">
            <mxPoint as="offset" />
          </mxGeometry>
        </mxCell>
        <mxCell id="WqlfgYkJmwx2m8KZQHiU-24" value="benefit&amp;nbsp;&lt;span style=&quot;background-color: rgb(255, 255, 255);&quot;&gt;&lt;font style=&quot;color: rgb(0, 0, 0);&quot;&gt;&lt;span style=&quot;font-family: Consolas, &amp;quot;Courier New&amp;quot;, monospace; font-size: 14px; white-space: pre;&quot;&gt;&amp;lt;&lt;/span&gt;&lt;span style=&quot;font-family: Consolas, &amp;quot;Courier New&amp;quot;, monospace; font-size: 14px; white-space: pre;&quot;&gt; 5&lt;/span&gt;&lt;span style=&quot;font-family: Consolas, &amp;quot;Courier New&amp;quot;, monospace; font-size: 14px; white-space: pre;&quot;&gt;0&lt;/span&gt;&lt;/font&gt;&lt;/span&gt;" style="rhombus;whiteSpace=wrap;html=1;rounded=1;" parent="WqlfgYkJmwx2m8KZQHiU-1" vertex="1">
          <mxGeometry x="351" y="130" width="126" height="130" as="geometry" />
        </mxCell>
        <mxCell id="R6OkOapHbmyc_MT4Wv6Z-1" value="" style="edgeStyle=orthogonalEdgeStyle;rounded=0;orthogonalLoop=1;jettySize=auto;html=1;" parent="WqlfgYkJmwx2m8KZQHiU-1" source="WqlfgYkJmwx2m8KZQHiU-25" target="R6OkOapHbmyc_MT4Wv6Z-0" edge="1">
          <mxGeometry relative="1" as="geometry" />
        </mxCell>
        <mxCell id="WqlfgYkJmwx2m8KZQHiU-25" value="Increase benefit by 1" style="whiteSpace=wrap;html=1;rounded=1;" parent="WqlfgYkJmwx2m8KZQHiU-1" vertex="1">
          <mxGeometry x="329" y="340" width="170" height="60" as="geometry" />
        </mxCell>
        <mxCell id="R6OkOapHbmyc_MT4Wv6Z-3" style="edgeStyle=orthogonalEdgeStyle;rounded=0;orthogonalLoop=1;jettySize=auto;html=1;entryX=0.5;entryY=0;entryDx=0;entryDy=0;" parent="WqlfgYkJmwx2m8KZQHiU-1" source="R6OkOapHbmyc_MT4Wv6Z-0" target="R6OkOapHbmyc_MT4Wv6Z-4" edge="1">
          <mxGeometry relative="1" as="geometry">
            <mxPoint x="414" y="680" as="targetPoint" />
          </mxGeometry>
        </mxCell>
        <mxCell id="R6OkOapHbmyc_MT4Wv6Z-24" value="Yes" style="edgeLabel;html=1;align=center;verticalAlign=middle;resizable=0;points=[];" parent="R6OkOapHbmyc_MT4Wv6Z-3" vertex="1" connectable="0">
          <mxGeometry x="-0.4974" relative="1" as="geometry">
            <mxPoint as="offset" />
          </mxGeometry>
        </mxCell>
        <mxCell id="R6OkOapHbmyc_MT4Wv6Z-20" style="edgeStyle=orthogonalEdgeStyle;rounded=0;orthogonalLoop=1;jettySize=auto;html=1;entryX=1;entryY=0.5;entryDx=0;entryDy=0;" parent="WqlfgYkJmwx2m8KZQHiU-1" source="R6OkOapHbmyc_MT4Wv6Z-0" target="WqlfgYkJmwx2m8KZQHiU-6" edge="1">
          <mxGeometry relative="1" as="geometry">
            <Array as="points">
              <mxPoint x="740" y="558" />
              <mxPoint x="740" y="1500" />
            </Array>
          </mxGeometry>
        </mxCell>
        <mxCell id="R6OkOapHbmyc_MT4Wv6Z-25" value="No" style="edgeLabel;html=1;align=center;verticalAlign=middle;resizable=0;points=[];" parent="R6OkOapHbmyc_MT4Wv6Z-20" vertex="1" connectable="0">
          <mxGeometry x="-0.975" relative="1" as="geometry">
            <mxPoint x="22" as="offset" />
          </mxGeometry>
        </mxCell>
        <mxCell id="R6OkOapHbmyc_MT4Wv6Z-0" value="expiresIn&amp;nbsp;&lt;span style=&quot;background-color: rgb(255, 255, 255);&quot;&gt;&lt;font style=&quot;color: rgb(0, 0, 0);&quot;&gt;&lt;span style=&quot;font-family: Consolas, &amp;quot;Courier New&amp;quot;, monospace; font-size: 14px; white-space: pre;&quot;&gt;&amp;lt;&lt;/span&gt;&lt;span style=&quot;font-family: Consolas, &amp;quot;Courier New&amp;quot;, monospace; font-size: 14px; white-space: pre;&quot;&gt; 11&lt;/span&gt;&lt;/font&gt;&lt;/span&gt;&lt;div&gt;&lt;span style=&quot;background-color: rgb(255, 255, 255);&quot;&gt;&lt;font style=&quot;color: rgb(0, 0, 0);&quot;&gt;&lt;span style=&quot;font-family: Consolas, &amp;quot;Courier New&amp;quot;, monospace; font-size: 14px; white-space: pre;&quot;&gt;&amp;amp;&amp;amp;&lt;/span&gt;&lt;/font&gt;&lt;/span&gt;&lt;/div&gt;&lt;div&gt;&lt;span style=&quot;background-color: rgb(255, 255, 255);&quot;&gt;&lt;font style=&quot;color: rgb(0, 0, 0);&quot;&gt;&lt;span style=&quot;background-color: rgb(251, 251, 251);&quot;&gt;benefit&amp;nbsp;&lt;/span&gt;&lt;span style=&quot;background-color: rgb(255, 255, 255);&quot;&gt;&lt;font style=&quot;color: rgb(0, 0, 0);&quot;&gt;&lt;span style=&quot;font-family: Consolas, &amp;quot;Courier New&amp;quot;, monospace; font-size: 14px; white-space: pre;&quot;&gt;&amp;lt;&lt;/span&gt;&lt;span style=&quot;font-family: Consolas, &amp;quot;Courier New&amp;quot;, monospace; font-size: 14px; white-space: pre;&quot;&gt; 5&lt;/span&gt;&lt;span style=&quot;font-family: Consolas, &amp;quot;Courier New&amp;quot;, monospace; font-size: 14px; white-space: pre;&quot;&gt;0&lt;/span&gt;&lt;/font&gt;&lt;/span&gt;&lt;span style=&quot;font-family: Consolas, &amp;quot;Courier New&amp;quot;, monospace; font-size: 14px; white-space: pre;&quot;&gt;&lt;br&gt;&lt;/span&gt;&lt;/font&gt;&lt;/span&gt;&lt;/div&gt;" style="rhombus;whiteSpace=wrap;html=1;rounded=1;" parent="WqlfgYkJmwx2m8KZQHiU-1" vertex="1">
          <mxGeometry x="355" y="500" width="119" height="125" as="geometry" />
        </mxCell>
        <mxCell id="-odg1vm77aOPw26gZtzR-0" style="edgeStyle=orthogonalEdgeStyle;rounded=0;orthogonalLoop=1;jettySize=auto;html=1;entryX=0.5;entryY=0;entryDx=0;entryDy=0;" edge="1" parent="WqlfgYkJmwx2m8KZQHiU-1" source="R6OkOapHbmyc_MT4Wv6Z-4" target="R6OkOapHbmyc_MT4Wv6Z-7">
          <mxGeometry relative="1" as="geometry" />
        </mxCell>
        <mxCell id="R6OkOapHbmyc_MT4Wv6Z-4" value="Increase benefit by 1" style="whiteSpace=wrap;html=1;rounded=1;" parent="WqlfgYkJmwx2m8KZQHiU-1" vertex="1">
          <mxGeometry x="329" y="720" width="170" height="60" as="geometry" />
        </mxCell>
        <mxCell id="R6OkOapHbmyc_MT4Wv6Z-6" style="edgeStyle=orthogonalEdgeStyle;rounded=0;orthogonalLoop=1;jettySize=auto;html=1;entryX=0.5;entryY=0;entryDx=0;entryDy=0;" parent="WqlfgYkJmwx2m8KZQHiU-1" source="R6OkOapHbmyc_MT4Wv6Z-7" target="R6OkOapHbmyc_MT4Wv6Z-10" edge="1">
          <mxGeometry relative="1" as="geometry">
            <mxPoint x="414" y="1127" as="targetPoint" />
          </mxGeometry>
        </mxCell>
        <mxCell id="R6OkOapHbmyc_MT4Wv6Z-29" value="Yes" style="edgeLabel;html=1;align=center;verticalAlign=middle;resizable=0;points=[];" parent="R6OkOapHbmyc_MT4Wv6Z-6" vertex="1" connectable="0">
          <mxGeometry x="-0.292" relative="1" as="geometry">
            <mxPoint as="offset" />
          </mxGeometry>
        </mxCell>
        <mxCell id="-odg1vm77aOPw26gZtzR-1" style="edgeStyle=orthogonalEdgeStyle;rounded=0;orthogonalLoop=1;jettySize=auto;html=1;entryX=1;entryY=0.5;entryDx=0;entryDy=0;" edge="1" parent="WqlfgYkJmwx2m8KZQHiU-1" source="R6OkOapHbmyc_MT4Wv6Z-7" target="WqlfgYkJmwx2m8KZQHiU-6">
          <mxGeometry relative="1" as="geometry">
            <Array as="points">
              <mxPoint x="740" y="960" />
              <mxPoint x="740" y="1500" />
            </Array>
          </mxGeometry>
        </mxCell>
        <mxCell id="-odg1vm77aOPw26gZtzR-2" value="No" style="edgeLabel;html=1;align=center;verticalAlign=middle;resizable=0;points=[];" vertex="1" connectable="0" parent="-odg1vm77aOPw26gZtzR-1">
          <mxGeometry x="-0.8463" y="-1" relative="1" as="geometry">
            <mxPoint as="offset" />
          </mxGeometry>
        </mxCell>
        <mxCell id="R6OkOapHbmyc_MT4Wv6Z-7" value="expiresIn&amp;nbsp;&lt;span style=&quot;background-color: rgb(255, 255, 255);&quot;&gt;&lt;font style=&quot;color: rgb(0, 0, 0);&quot;&gt;&lt;span style=&quot;font-family: Consolas, &amp;quot;Courier New&amp;quot;, monospace; font-size: 14px; white-space: pre;&quot;&gt;&amp;lt; &lt;/span&gt;&lt;span style=&quot;font-family: Consolas, &amp;quot;Courier New&amp;quot;, monospace; font-size: 14px; white-space: pre;&quot;&gt;6&lt;/span&gt;&lt;/font&gt;&lt;/span&gt;&lt;div&gt;&lt;span style=&quot;background-color: rgb(255, 255, 255);&quot;&gt;&lt;font style=&quot;color: rgb(0, 0, 0);&quot;&gt;&lt;span style=&quot;font-family: Consolas, &amp;quot;Courier New&amp;quot;, monospace; font-size: 14px; white-space: pre;&quot;&gt;&amp;amp;&amp;amp;&lt;/span&gt;&lt;/font&gt;&lt;/span&gt;&lt;/div&gt;&lt;div&gt;&lt;span style=&quot;background-color: rgb(255, 255, 255);&quot;&gt;&lt;font style=&quot;color: rgb(0, 0, 0);&quot;&gt;&lt;span style=&quot;background-color: rgb(251, 251, 251);&quot;&gt;benefit&amp;nbsp;&lt;/span&gt;&lt;span style=&quot;background-color: rgb(255, 255, 255);&quot;&gt;&lt;font style=&quot;color: rgb(0, 0, 0);&quot;&gt;&lt;span style=&quot;font-family: Consolas, &amp;quot;Courier New&amp;quot;, monospace; font-size: 14px; white-space: pre;&quot;&gt;&amp;lt;&lt;/span&gt;&lt;span style=&quot;font-family: Consolas, &amp;quot;Courier New&amp;quot;, monospace; font-size: 14px; white-space: pre;&quot;&gt; 5&lt;/span&gt;&lt;span style=&quot;font-family: Consolas, &amp;quot;Courier New&amp;quot;, monospace; font-size: 14px; white-space: pre;&quot;&gt;0&lt;/span&gt;&lt;/font&gt;&lt;/span&gt;&lt;span style=&quot;font-family: Consolas, &amp;quot;Courier New&amp;quot;, monospace; font-size: 14px; white-space: pre;&quot;&gt;&lt;br&gt;&lt;/span&gt;&lt;/font&gt;&lt;/span&gt;&lt;/div&gt;" style="rhombus;whiteSpace=wrap;html=1;rounded=1;" parent="WqlfgYkJmwx2m8KZQHiU-1" vertex="1">
          <mxGeometry x="350" y="900" width="129" height="119" as="geometry" />
        </mxCell>
        <mxCell id="R6OkOapHbmyc_MT4Wv6Z-11" style="edgeStyle=orthogonalEdgeStyle;rounded=0;orthogonalLoop=1;jettySize=auto;html=1;entryX=0.5;entryY=0;entryDx=0;entryDy=0;" parent="WqlfgYkJmwx2m8KZQHiU-1" source="R6OkOapHbmyc_MT4Wv6Z-10" target="WqlfgYkJmwx2m8KZQHiU-6" edge="1">
          <mxGeometry relative="1" as="geometry" />
        </mxCell>
        <mxCell id="R6OkOapHbmyc_MT4Wv6Z-10" value="Increase benefit by 1" style="whiteSpace=wrap;html=1;rounded=1;" parent="WqlfgYkJmwx2m8KZQHiU-1" vertex="1">
          <mxGeometry x="329.5" y="1220" width="170" height="60" as="geometry" />
        </mxCell>
        <mxCell id="R6OkOapHbmyc_MT4Wv6Z-17" value="" style="edgeStyle=orthogonalEdgeStyle;rounded=0;orthogonalLoop=1;jettySize=auto;html=1;" parent="WqlfgYkJmwx2m8KZQHiU-1" source="R6OkOapHbmyc_MT4Wv6Z-13" target="R6OkOapHbmyc_MT4Wv6Z-16" edge="1">
          <mxGeometry relative="1" as="geometry" />
        </mxCell>
        <mxCell id="R6OkOapHbmyc_MT4Wv6Z-33" value="Yes" style="edgeLabel;html=1;align=center;verticalAlign=middle;resizable=0;points=[];" parent="R6OkOapHbmyc_MT4Wv6Z-17" vertex="1" connectable="0">
          <mxGeometry x="-0.4556" y="-2" relative="1" as="geometry">
            <mxPoint as="offset" />
          </mxGeometry>
        </mxCell>
        <mxCell id="R6OkOapHbmyc_MT4Wv6Z-37" style="edgeStyle=orthogonalEdgeStyle;rounded=0;orthogonalLoop=1;jettySize=auto;html=1;" parent="WqlfgYkJmwx2m8KZQHiU-1" source="R6OkOapHbmyc_MT4Wv6Z-13" target="WqlfgYkJmwx2m8KZQHiU-24" edge="1">
          <mxGeometry relative="1" as="geometry" />
        </mxCell>
        <mxCell id="-odg1vm77aOPw26gZtzR-3" value="No" style="edgeLabel;html=1;align=center;verticalAlign=middle;resizable=0;points=[];" vertex="1" connectable="0" parent="R6OkOapHbmyc_MT4Wv6Z-37">
          <mxGeometry x="-0.7935" relative="1" as="geometry">
            <mxPoint as="offset" />
          </mxGeometry>
        </mxCell>
        <mxCell id="R6OkOapHbmyc_MT4Wv6Z-13" value="expiresIn&amp;nbsp;&lt;span style=&quot;background-color: rgb(255, 255, 255);&quot;&gt;&lt;font style=&quot;color: rgb(0, 0, 0);&quot;&gt;&lt;span style=&quot;font-family: Consolas, &amp;quot;Courier New&amp;quot;, monospace; font-size: 14px; white-space: pre;&quot;&gt;&amp;lt;&lt;/span&gt;&lt;span style=&quot;font-family: Consolas, &amp;quot;Courier New&amp;quot;, monospace; font-size: 14px; white-space: pre;&quot;&gt; 0&lt;/span&gt;&lt;/font&gt;&lt;/span&gt;" style="rhombus;whiteSpace=wrap;html=1;rounded=1;" parent="WqlfgYkJmwx2m8KZQHiU-1" vertex="1">
          <mxGeometry x="20" y="130" width="126" height="130" as="geometry" />
        </mxCell>
        <mxCell id="YawOdXrmkGOpaDlWvu15-0" style="edgeStyle=orthogonalEdgeStyle;rounded=0;orthogonalLoop=1;jettySize=auto;html=1;entryX=0;entryY=0.5;entryDx=0;entryDy=0;" parent="WqlfgYkJmwx2m8KZQHiU-1" source="R6OkOapHbmyc_MT4Wv6Z-16" target="WqlfgYkJmwx2m8KZQHiU-19" edge="1">
          <mxGeometry relative="1" as="geometry">
            <Array as="points">
              <mxPoint x="83" y="1660" />
            </Array>
          </mxGeometry>
        </mxCell>
        <mxCell id="R6OkOapHbmyc_MT4Wv6Z-16" value="benefit = 0" style="whiteSpace=wrap;html=1;rounded=1;" parent="WqlfgYkJmwx2m8KZQHiU-1" vertex="1">
          <mxGeometry x="23" y="330" width="120" height="60" as="geometry" />
        </mxCell>
      </root>
    </mxGraphModel>
  </diagram>
  <diagram id="wNQ0xlX_krh-Om2GciLM" name="Normal Drug">
    <mxGraphModel dx="3194" dy="2365" grid="1" gridSize="10" guides="1" tooltips="1" connect="1" arrows="1" fold="1" page="1" pageScale="1" pageWidth="827" pageHeight="1169" math="0" shadow="0">
      <root>
        <mxCell id="0" />
        <mxCell id="1" parent="0" />
        <mxCell id="SZOn438Utk-Hs-qD7Qnp-1" style="edgeStyle=orthogonalEdgeStyle;rounded=0;orthogonalLoop=1;jettySize=auto;html=1;entryX=0.5;entryY=0;entryDx=0;entryDy=0;" parent="1" source="SZOn438Utk-Hs-qD7Qnp-2" target="SZOn438Utk-Hs-qD7Qnp-22" edge="1">
          <mxGeometry relative="1" as="geometry" />
        </mxCell>
        <mxCell id="SZOn438Utk-Hs-qD7Qnp-2" value="Start Process" style="ellipse;whiteSpace=wrap;html=1;" parent="1" vertex="1">
          <mxGeometry x="285" y="-150" width="120" height="80" as="geometry" />
        </mxCell>
        <mxCell id="SZOn438Utk-Hs-qD7Qnp-3" value="End&lt;div&gt;Process&lt;/div&gt;" style="ellipse;whiteSpace=wrap;html=1;rounded=1;" parent="1" vertex="1">
          <mxGeometry x="305" y="810" width="80" height="80" as="geometry" />
        </mxCell>
        <mxCell id="SZOn438Utk-Hs-qD7Qnp-4" value="" style="edgeStyle=orthogonalEdgeStyle;rounded=0;orthogonalLoop=1;jettySize=auto;html=1;" parent="1" source="SZOn438Utk-Hs-qD7Qnp-5" target="SZOn438Utk-Hs-qD7Qnp-24" edge="1">
          <mxGeometry relative="1" as="geometry" />
        </mxCell>
        <mxCell id="SZOn438Utk-Hs-qD7Qnp-5" value="Decrease benefit by 1" style="whiteSpace=wrap;html=1;rounded=1;" parent="1" vertex="1">
          <mxGeometry x="260" y="204" width="170" height="60" as="geometry" />
        </mxCell>
        <mxCell id="SZOn438Utk-Hs-qD7Qnp-6" style="edgeStyle=orthogonalEdgeStyle;rounded=0;orthogonalLoop=1;jettySize=auto;html=1;entryX=0.5;entryY=0;entryDx=0;entryDy=0;" parent="1" source="SZOn438Utk-Hs-qD7Qnp-10" target="SZOn438Utk-Hs-qD7Qnp-17" edge="1">
          <mxGeometry relative="1" as="geometry">
            <mxPoint x="345" y="655" as="targetPoint" />
          </mxGeometry>
        </mxCell>
        <mxCell id="SZOn438Utk-Hs-qD7Qnp-7" value="Yes" style="edgeLabel;html=1;align=center;verticalAlign=middle;resizable=0;points=[];" parent="SZOn438Utk-Hs-qD7Qnp-6" vertex="1" connectable="0">
          <mxGeometry x="-0.4974" relative="1" as="geometry">
            <mxPoint as="offset" />
          </mxGeometry>
        </mxCell>
        <mxCell id="SZOn438Utk-Hs-qD7Qnp-8" style="edgeStyle=orthogonalEdgeStyle;rounded=0;orthogonalLoop=1;jettySize=auto;html=1;entryX=1;entryY=0.5;entryDx=0;entryDy=0;" parent="1" source="SZOn438Utk-Hs-qD7Qnp-10" target="SZOn438Utk-Hs-qD7Qnp-3" edge="1">
          <mxGeometry relative="1" as="geometry">
            <Array as="points">
              <mxPoint x="540" y="540" />
              <mxPoint x="540" y="850" />
            </Array>
          </mxGeometry>
        </mxCell>
        <mxCell id="SZOn438Utk-Hs-qD7Qnp-9" value="No" style="edgeLabel;html=1;align=center;verticalAlign=middle;resizable=0;points=[];" parent="SZOn438Utk-Hs-qD7Qnp-8" vertex="1" connectable="0">
          <mxGeometry x="-0.975" relative="1" as="geometry">
            <mxPoint x="22" as="offset" />
          </mxGeometry>
        </mxCell>
        <mxCell id="SZOn438Utk-Hs-qD7Qnp-10" value="expiresIn&amp;nbsp;&lt;span style=&quot;background-color: rgb(255, 255, 255);&quot;&gt;&lt;font style=&quot;color: rgb(0, 0, 0);&quot;&gt;&lt;span style=&quot;font-family: Consolas, &amp;quot;Courier New&amp;quot;, monospace; font-size: 14px; white-space: pre;&quot;&gt;&amp;lt;&lt;/span&gt;&lt;span style=&quot;font-family: Consolas, &amp;quot;Courier New&amp;quot;, monospace; font-size: 14px; white-space: pre;&quot;&gt; 0&lt;/span&gt;&lt;/font&gt;&lt;/span&gt;&lt;div&gt;&lt;span style=&quot;background-color: rgb(255, 255, 255);&quot;&gt;&lt;font style=&quot;color: rgb(0, 0, 0);&quot;&gt;&lt;span style=&quot;font-family: Consolas, &amp;quot;Courier New&amp;quot;, monospace; font-size: 14px; white-space: pre;&quot;&gt;&amp;amp;&amp;amp;&lt;/span&gt;&lt;/font&gt;&lt;/span&gt;&lt;/div&gt;&lt;div&gt;&lt;span style=&quot;background-color: rgb(255, 255, 255);&quot;&gt;&lt;font style=&quot;color: rgb(0, 0, 0);&quot;&gt;&lt;span style=&quot;background-color: rgb(251, 251, 251);&quot;&gt;benefit&amp;nbsp;&lt;/span&gt;&lt;span style=&quot;background-color: rgb(255, 255, 255);&quot;&gt;&lt;font style=&quot;color: rgb(0, 0, 0);&quot;&gt;&lt;span style=&quot;font-family: Consolas, &amp;quot;Courier New&amp;quot;, monospace; font-size: 14px; white-space: pre;&quot;&gt;&amp;gt;&lt;/span&gt;&lt;span style=&quot;font-family: Consolas, &amp;quot;Courier New&amp;quot;, monospace; font-size: 14px; white-space: pre;&quot;&gt; &lt;/span&gt;&lt;span style=&quot;font-family: Consolas, &amp;quot;Courier New&amp;quot;, monospace; font-size: 14px; white-space: pre;&quot;&gt;0&lt;/span&gt;&lt;/font&gt;&lt;/span&gt;&lt;span style=&quot;font-family: Consolas, &amp;quot;Courier New&amp;quot;, monospace; font-size: 14px; white-space: pre;&quot;&gt;&lt;br&gt;&lt;/span&gt;&lt;/font&gt;&lt;/span&gt;&lt;/div&gt;" style="rhombus;whiteSpace=wrap;html=1;rounded=1;" parent="1" vertex="1">
          <mxGeometry x="286" y="480" width="118" height="120" as="geometry" />
        </mxCell>
        <mxCell id="SZOn438Utk-Hs-qD7Qnp-16" style="edgeStyle=orthogonalEdgeStyle;rounded=0;orthogonalLoop=1;jettySize=auto;html=1;entryX=0.5;entryY=0;entryDx=0;entryDy=0;" parent="1" source="SZOn438Utk-Hs-qD7Qnp-17" target="SZOn438Utk-Hs-qD7Qnp-3" edge="1">
          <mxGeometry relative="1" as="geometry">
            <mxPoint x="345" y="746.0000000000005" as="targetPoint" />
          </mxGeometry>
        </mxCell>
        <mxCell id="SZOn438Utk-Hs-qD7Qnp-17" value="Decrease benefit by 1" style="whiteSpace=wrap;html=1;rounded=1;" parent="1" vertex="1">
          <mxGeometry x="260" y="680" width="170" height="60" as="geometry" />
        </mxCell>
        <mxCell id="SZOn438Utk-Hs-qD7Qnp-18" style="edgeStyle=orthogonalEdgeStyle;rounded=0;orthogonalLoop=1;jettySize=auto;html=1;entryX=0.5;entryY=0;entryDx=0;entryDy=0;" parent="1" source="SZOn438Utk-Hs-qD7Qnp-22" target="SZOn438Utk-Hs-qD7Qnp-5" edge="1">
          <mxGeometry relative="1" as="geometry" />
        </mxCell>
        <mxCell id="SZOn438Utk-Hs-qD7Qnp-19" value="Yes" style="edgeLabel;html=1;align=center;verticalAlign=middle;resizable=0;points=[];" parent="SZOn438Utk-Hs-qD7Qnp-18" vertex="1" connectable="0">
          <mxGeometry x="-0.5067" relative="1" as="geometry">
            <mxPoint as="offset" />
          </mxGeometry>
        </mxCell>
        <mxCell id="SZOn438Utk-Hs-qD7Qnp-20" style="edgeStyle=orthogonalEdgeStyle;rounded=0;orthogonalLoop=1;jettySize=auto;html=1;entryX=1;entryY=0.5;entryDx=0;entryDy=0;" parent="1" source="SZOn438Utk-Hs-qD7Qnp-22" target="SZOn438Utk-Hs-qD7Qnp-24" edge="1">
          <mxGeometry relative="1" as="geometry">
            <Array as="points">
              <mxPoint x="540" y="45" />
              <mxPoint x="540" y="374" />
            </Array>
          </mxGeometry>
        </mxCell>
        <mxCell id="SZOn438Utk-Hs-qD7Qnp-21" value="No" style="edgeLabel;html=1;align=center;verticalAlign=middle;resizable=0;points=[];" parent="SZOn438Utk-Hs-qD7Qnp-20" vertex="1" connectable="0">
          <mxGeometry x="-0.9075" y="1" relative="1" as="geometry">
            <mxPoint as="offset" />
          </mxGeometry>
        </mxCell>
        <mxCell id="SZOn438Utk-Hs-qD7Qnp-22" value="benefit&amp;nbsp;&lt;span style=&quot;background-color: rgb(255, 255, 255);&quot;&gt;&lt;font style=&quot;color: rgb(0, 0, 0);&quot;&gt;&lt;span style=&quot;font-family: Consolas, &amp;quot;Courier New&amp;quot;, monospace; font-size: 14px; white-space: pre;&quot;&gt;&amp;gt;&lt;/span&gt;&lt;span style=&quot;font-family: Consolas, &amp;quot;Courier New&amp;quot;, monospace; font-size: 14px; white-space: pre;&quot;&gt; &lt;/span&gt;&lt;span style=&quot;font-family: Consolas, &amp;quot;Courier New&amp;quot;, monospace; font-size: 14px; white-space: pre;&quot;&gt;0&lt;/span&gt;&lt;/font&gt;&lt;/span&gt;" style="rhombus;whiteSpace=wrap;html=1;rounded=1;" parent="1" vertex="1">
          <mxGeometry x="282" y="-20" width="126" height="130" as="geometry" />
        </mxCell>
        <mxCell id="SZOn438Utk-Hs-qD7Qnp-23" style="edgeStyle=orthogonalEdgeStyle;rounded=0;orthogonalLoop=1;jettySize=auto;html=1;" parent="1" source="SZOn438Utk-Hs-qD7Qnp-24" target="SZOn438Utk-Hs-qD7Qnp-10" edge="1">
          <mxGeometry relative="1" as="geometry" />
        </mxCell>
        <mxCell id="SZOn438Utk-Hs-qD7Qnp-24" value="Decrease expiresIn by 1" style="whiteSpace=wrap;html=1;rounded=1;" parent="1" vertex="1">
          <mxGeometry x="260" y="344" width="170" height="60" as="geometry" />
        </mxCell>
      </root>
    </mxGraphModel>
  </diagram>
  <diagram name="Dafalgan" id="A_a6mPA-hz_IpOJ42k5O">
    <mxGraphModel dx="3194" dy="2365" grid="1" gridSize="10" guides="1" tooltips="1" connect="1" arrows="1" fold="1" page="1" pageScale="1" pageWidth="827" pageHeight="1169" math="0" shadow="0">
      <root>
        <mxCell id="sq5sGqoeWctUIdlfRgq4-0" />
        <mxCell id="sq5sGqoeWctUIdlfRgq4-1" parent="sq5sGqoeWctUIdlfRgq4-0" />
        <mxCell id="sq5sGqoeWctUIdlfRgq4-2" style="edgeStyle=orthogonalEdgeStyle;rounded=0;orthogonalLoop=1;jettySize=auto;html=1;entryX=0.5;entryY=0;entryDx=0;entryDy=0;" edge="1" parent="sq5sGqoeWctUIdlfRgq4-1" source="sq5sGqoeWctUIdlfRgq4-3" target="sq5sGqoeWctUIdlfRgq4-18">
          <mxGeometry relative="1" as="geometry" />
        </mxCell>
        <mxCell id="sq5sGqoeWctUIdlfRgq4-3" value="Start Process" style="ellipse;whiteSpace=wrap;html=1;" vertex="1" parent="sq5sGqoeWctUIdlfRgq4-1">
          <mxGeometry x="285" y="-150" width="120" height="80" as="geometry" />
        </mxCell>
        <mxCell id="sq5sGqoeWctUIdlfRgq4-4" value="End&lt;div&gt;Process&lt;/div&gt;" style="ellipse;whiteSpace=wrap;html=1;rounded=1;" vertex="1" parent="sq5sGqoeWctUIdlfRgq4-1">
          <mxGeometry x="305" y="810" width="80" height="80" as="geometry" />
        </mxCell>
        <mxCell id="sq5sGqoeWctUIdlfRgq4-5" value="" style="edgeStyle=orthogonalEdgeStyle;rounded=0;orthogonalLoop=1;jettySize=auto;html=1;" edge="1" parent="sq5sGqoeWctUIdlfRgq4-1" source="sq5sGqoeWctUIdlfRgq4-6" target="sq5sGqoeWctUIdlfRgq4-20">
          <mxGeometry relative="1" as="geometry" />
        </mxCell>
        <mxCell id="sq5sGqoeWctUIdlfRgq4-6" value="Decrease benefit by 2" style="whiteSpace=wrap;html=1;rounded=1;" vertex="1" parent="sq5sGqoeWctUIdlfRgq4-1">
          <mxGeometry x="260" y="204" width="170" height="60" as="geometry" />
        </mxCell>
        <mxCell id="sq5sGqoeWctUIdlfRgq4-7" style="edgeStyle=orthogonalEdgeStyle;rounded=0;orthogonalLoop=1;jettySize=auto;html=1;entryX=0.5;entryY=0;entryDx=0;entryDy=0;" edge="1" parent="sq5sGqoeWctUIdlfRgq4-1" source="sq5sGqoeWctUIdlfRgq4-11" target="sq5sGqoeWctUIdlfRgq4-13">
          <mxGeometry relative="1" as="geometry">
            <mxPoint x="345" y="655" as="targetPoint" />
          </mxGeometry>
        </mxCell>
        <mxCell id="sq5sGqoeWctUIdlfRgq4-8" value="Yes" style="edgeLabel;html=1;align=center;verticalAlign=middle;resizable=0;points=[];" vertex="1" connectable="0" parent="sq5sGqoeWctUIdlfRgq4-7">
          <mxGeometry x="-0.4974" relative="1" as="geometry">
            <mxPoint as="offset" />
          </mxGeometry>
        </mxCell>
        <mxCell id="sq5sGqoeWctUIdlfRgq4-9" style="edgeStyle=orthogonalEdgeStyle;rounded=0;orthogonalLoop=1;jettySize=auto;html=1;entryX=1;entryY=0.5;entryDx=0;entryDy=0;" edge="1" parent="sq5sGqoeWctUIdlfRgq4-1" source="sq5sGqoeWctUIdlfRgq4-11" target="sq5sGqoeWctUIdlfRgq4-4">
          <mxGeometry relative="1" as="geometry">
            <Array as="points">
              <mxPoint x="540" y="540" />
              <mxPoint x="540" y="850" />
            </Array>
          </mxGeometry>
        </mxCell>
        <mxCell id="sq5sGqoeWctUIdlfRgq4-10" value="No" style="edgeLabel;html=1;align=center;verticalAlign=middle;resizable=0;points=[];" vertex="1" connectable="0" parent="sq5sGqoeWctUIdlfRgq4-9">
          <mxGeometry x="-0.975" relative="1" as="geometry">
            <mxPoint x="22" as="offset" />
          </mxGeometry>
        </mxCell>
        <mxCell id="sq5sGqoeWctUIdlfRgq4-11" value="expiresIn&amp;nbsp;&lt;span style=&quot;background-color: rgb(255, 255, 255);&quot;&gt;&lt;font style=&quot;color: rgb(0, 0, 0);&quot;&gt;&lt;span style=&quot;font-family: Consolas, &amp;quot;Courier New&amp;quot;, monospace; font-size: 14px; white-space: pre;&quot;&gt;&amp;lt;&lt;/span&gt;&lt;span style=&quot;font-family: Consolas, &amp;quot;Courier New&amp;quot;, monospace; font-size: 14px; white-space: pre;&quot;&gt; 0&lt;/span&gt;&lt;/font&gt;&lt;/span&gt;&lt;div&gt;&lt;span style=&quot;background-color: rgb(255, 255, 255);&quot;&gt;&lt;font style=&quot;color: rgb(0, 0, 0);&quot;&gt;&lt;span style=&quot;font-family: Consolas, &amp;quot;Courier New&amp;quot;, monospace; font-size: 14px; white-space: pre;&quot;&gt;&amp;amp;&amp;amp;&lt;/span&gt;&lt;/font&gt;&lt;/span&gt;&lt;/div&gt;&lt;div&gt;&lt;span style=&quot;background-color: rgb(255, 255, 255);&quot;&gt;&lt;font style=&quot;color: rgb(0, 0, 0);&quot;&gt;&lt;span style=&quot;background-color: rgb(251, 251, 251);&quot;&gt;benefit&amp;nbsp;&lt;/span&gt;&lt;span style=&quot;background-color: rgb(255, 255, 255);&quot;&gt;&lt;font style=&quot;color: rgb(0, 0, 0);&quot;&gt;&lt;span style=&quot;font-family: Consolas, &amp;quot;Courier New&amp;quot;, monospace; font-size: 14px; white-space: pre;&quot;&gt;&amp;gt;&lt;/span&gt;&lt;span style=&quot;font-family: Consolas, &amp;quot;Courier New&amp;quot;, monospace; font-size: 14px; white-space: pre;&quot;&gt; &lt;/span&gt;&lt;span style=&quot;font-family: Consolas, &amp;quot;Courier New&amp;quot;, monospace; font-size: 14px; white-space: pre;&quot;&gt;0&lt;/span&gt;&lt;/font&gt;&lt;/span&gt;&lt;span style=&quot;font-family: Consolas, &amp;quot;Courier New&amp;quot;, monospace; font-size: 14px; white-space: pre;&quot;&gt;&lt;br&gt;&lt;/span&gt;&lt;/font&gt;&lt;/span&gt;&lt;/div&gt;" style="rhombus;whiteSpace=wrap;html=1;rounded=1;" vertex="1" parent="sq5sGqoeWctUIdlfRgq4-1">
          <mxGeometry x="286" y="480" width="118" height="120" as="geometry" />
        </mxCell>
        <mxCell id="sq5sGqoeWctUIdlfRgq4-12" style="edgeStyle=orthogonalEdgeStyle;rounded=0;orthogonalLoop=1;jettySize=auto;html=1;entryX=0.5;entryY=0;entryDx=0;entryDy=0;" edge="1" parent="sq5sGqoeWctUIdlfRgq4-1" source="sq5sGqoeWctUIdlfRgq4-13" target="sq5sGqoeWctUIdlfRgq4-4">
          <mxGeometry relative="1" as="geometry">
            <mxPoint x="345" y="746.0000000000005" as="targetPoint" />
          </mxGeometry>
        </mxCell>
        <mxCell id="sq5sGqoeWctUIdlfRgq4-13" value="Decrease benefit by 2" style="whiteSpace=wrap;html=1;rounded=1;" vertex="1" parent="sq5sGqoeWctUIdlfRgq4-1">
          <mxGeometry x="260" y="680" width="170" height="60" as="geometry" />
        </mxCell>
        <mxCell id="sq5sGqoeWctUIdlfRgq4-14" style="edgeStyle=orthogonalEdgeStyle;rounded=0;orthogonalLoop=1;jettySize=auto;html=1;entryX=0.5;entryY=0;entryDx=0;entryDy=0;" edge="1" parent="sq5sGqoeWctUIdlfRgq4-1" source="sq5sGqoeWctUIdlfRgq4-18" target="sq5sGqoeWctUIdlfRgq4-6">
          <mxGeometry relative="1" as="geometry" />
        </mxCell>
        <mxCell id="sq5sGqoeWctUIdlfRgq4-15" value="Yes" style="edgeLabel;html=1;align=center;verticalAlign=middle;resizable=0;points=[];" vertex="1" connectable="0" parent="sq5sGqoeWctUIdlfRgq4-14">
          <mxGeometry x="-0.5067" relative="1" as="geometry">
            <mxPoint as="offset" />
          </mxGeometry>
        </mxCell>
        <mxCell id="sq5sGqoeWctUIdlfRgq4-16" style="edgeStyle=orthogonalEdgeStyle;rounded=0;orthogonalLoop=1;jettySize=auto;html=1;entryX=1;entryY=0.5;entryDx=0;entryDy=0;" edge="1" parent="sq5sGqoeWctUIdlfRgq4-1" source="sq5sGqoeWctUIdlfRgq4-18" target="sq5sGqoeWctUIdlfRgq4-20">
          <mxGeometry relative="1" as="geometry">
            <Array as="points">
              <mxPoint x="540" y="45" />
              <mxPoint x="540" y="374" />
            </Array>
          </mxGeometry>
        </mxCell>
        <mxCell id="sq5sGqoeWctUIdlfRgq4-17" value="No" style="edgeLabel;html=1;align=center;verticalAlign=middle;resizable=0;points=[];" vertex="1" connectable="0" parent="sq5sGqoeWctUIdlfRgq4-16">
          <mxGeometry x="-0.9075" y="1" relative="1" as="geometry">
            <mxPoint as="offset" />
          </mxGeometry>
        </mxCell>
        <mxCell id="sq5sGqoeWctUIdlfRgq4-18" value="benefit&amp;nbsp;&lt;span style=&quot;background-color: rgb(255, 255, 255);&quot;&gt;&lt;font style=&quot;color: rgb(0, 0, 0);&quot;&gt;&lt;span style=&quot;font-family: Consolas, &amp;quot;Courier New&amp;quot;, monospace; font-size: 14px; white-space: pre;&quot;&gt;&amp;gt;&lt;/span&gt;&lt;span style=&quot;font-family: Consolas, &amp;quot;Courier New&amp;quot;, monospace; font-size: 14px; white-space: pre;&quot;&gt; &lt;/span&gt;&lt;span style=&quot;font-family: Consolas, &amp;quot;Courier New&amp;quot;, monospace; font-size: 14px; white-space: pre;&quot;&gt;0&lt;/span&gt;&lt;/font&gt;&lt;/span&gt;" style="rhombus;whiteSpace=wrap;html=1;rounded=1;" vertex="1" parent="sq5sGqoeWctUIdlfRgq4-1">
          <mxGeometry x="282" y="-20" width="126" height="130" as="geometry" />
        </mxCell>
        <mxCell id="sq5sGqoeWctUIdlfRgq4-19" style="edgeStyle=orthogonalEdgeStyle;rounded=0;orthogonalLoop=1;jettySize=auto;html=1;" edge="1" parent="sq5sGqoeWctUIdlfRgq4-1" source="sq5sGqoeWctUIdlfRgq4-20" target="sq5sGqoeWctUIdlfRgq4-11">
          <mxGeometry relative="1" as="geometry" />
        </mxCell>
        <mxCell id="sq5sGqoeWctUIdlfRgq4-20" value="Decrease expiresIn by 1" style="whiteSpace=wrap;html=1;rounded=1;" vertex="1" parent="sq5sGqoeWctUIdlfRgq4-1">
          <mxGeometry x="260" y="344" width="170" height="60" as="geometry" />
        </mxCell>
      </root>
    </mxGraphModel>
  </diagram>
</mxfile>
